<svg xmlns="http://www.w3.org/2000/svg" width="150" height="150" viewBox="0 0 150 150">
  <g fill="none" fill-rule="evenodd">
    <path fill="#00AEF9" d="M75.0004984,150 C116.422017,150 150,116.421 150,75 C150,33.579 116.422017,0 75.0004984,0 C33.5789802,0 0,33.579 0,75 C0,116.421 33.5789802,150 75.0004984,150"/>
    <path fill="#22333E" d="M120.435993,43.2982 C120.435993,41.0722 118.654868,39.3332 116.462483,39.3332 C114.338642,39.3332 112.488974,41.0722 112.488974,43.2982 C112.488974,45.5242 114.338642,47.3332 116.462483,47.3332 C118.654868,47.3332 120.435993,45.5242 120.435993,43.2982"/>
    <path fill="#FFFFFF" d="M53.0379139,81.8093 L35.8485099,81.8093 L44.4134106,59.7983 L53.0379139,81.8093 Z M47.7521523,53.9083 L41.1362583,53.9083 L24.261755,96.0293 L30.5001656,96.0293 L34.1746689,86.6873 L54.6501656,86.6873 L58.3246689,96.0293 L64.5640728,96.0293 L47.7899007,54.0023 L47.7521523,53.9083 Z M87.3340728,71.4124 C82.034404,69.9634 77.4579139,68.7124 77.4579139,64.7174 C77.4579139,60.8924 80.9039404,58.2214 85.8400331,58.2214 C89.2632119,58.2214 94.1089073,59.0824 97.7486424,63.1874 L97.8658609,63.3184 L101.174801,59.2554 L101.083411,59.1594 C97.4188411,55.2734 92.2989735,53.2194 86.2771192,53.2194 C77.8900331,53.2194 71.8026159,58.1864 71.8026159,65.0314 C71.8026159,73.2114 79.1883775,75.2124 85.7049338,76.9794 C91.2062583,78.4694 96.4036093,79.8784 96.4036093,84.7184 C96.4036093,85.9084 95.939702,91.8404 86.7748013,91.8404 C79.7287748,91.8404 75.4036093,87.6684 73.8708278,85.8744 L73.7526159,85.7364 L70.4496358,89.9914 L70.5320861,90.0844 C74.3377152,94.4034 80.0387086,96.7814 86.5880464,96.7814 C97.9940066,96.7814 102.058907,90.3554 102.058907,84.3424 C102.058907,75.4374 94.2360596,73.2994 87.3340728,71.4124 Z M113.727815,96.029 L119.196358,96.029 L119.196358,53.908 L113.727815,53.908 L113.727815,96.029 Z"/>
  </g>
</svg>
