<svg xmlns="http://www.w3.org/2000/svg" width="30" height="30" viewBox="0 0 30 30">
  <g fill="none" fill-rule="evenodd">
    <path fill="#22333E" d="M0,15 C0,6.71572834 6.71572834,0 15,0 C23.2842717,0 30,6.71572834 30,15 C30,23.2842717 23.2842717,30 15,30 C6.71572834,30 0,23.2842717 0,15 Z"/>
    <path fill="#FFFFFF" d="M16.1087551,23.3196729 L16.1087551,15.158881 L18.3678411,15.158881 L18.6672187,12.3466269 L16.1087551,12.3466269 L16.1125932,10.9390667 C16.1125932,10.2055875 16.18248,9.81257258 17.2389378,9.81257258 L18.6512263,9.81257258 L18.6512263,7 L16.3918205,7 C13.6779108,7 12.7226849,8.3642458 12.7226849,10.6584782 L12.7226849,12.3469454 L11.0310091,12.3469454 L11.0310091,15.1591995 L12.7226849,15.1591995 L12.7226849,23.3196729 L16.1087551,23.3196729 Z"/>
  </g>
</svg>
