<svg xmlns="http://www.w3.org/2000/svg" width="30" height="30" viewBox="0 0 30 30">
  <g fill="none" fill-rule="evenodd">
    <path fill="#22333E" d="M0,15 C0,6.71572834 6.71572834,0 15,0 C23.2842717,0 30,6.71572834 30,15 C30,23.2842717 23.2842717,30 15,30 C6.71572834,30 0,23.2842717 0,15 Z"/>
    <path fill="#FFFFFF" d="M13.3787799,9.34951181 C11.7927427,9.88162364 10.4422399,11.0439194 9.69344418,12.5130445 C9.43271819,13.0192556 9.24240473,13.5595963 9.128079,14.1153155 C8.84044069,15.4999934 9.0409409,16.9763357 9.69268705,18.2375129 C10.1161947,19.0607382 10.723477,19.7925016 11.4600899,20.36623 C12.155061,20.9092687 12.9651149,21.3103929 13.8239689,21.534259 C14.9076199,21.8190997 16.0612016,21.8126245 17.1520109,21.5694003 C18.1379241,21.3470182 19.0707009,20.8853915 19.8154356,20.2115675 C20.6026382,19.5026696 21.1641489,18.5686916 21.4614233,17.5649705 C21.7856789,16.4701246 21.8304181,15.3013536 21.6270958,14.180607 C19.5865089,14.1795953 17.545853,14.1800674 15.5052661,14.1803372 C15.5055414,15.009768 15.5042336,15.8391313 15.5057479,16.6682922 C16.6875497,16.6680899 17.8693515,16.6678201 19.050878,16.6682922 C18.9139074,17.4631212 18.4318947,18.1899607 17.7484181,18.637423 C17.3187158,18.92051 16.8250021,19.1043108 16.3160771,19.1916584 C15.8038483,19.2773197 15.2745497,19.288314 14.7635598,19.1869369 C14.2439662,19.0853574 13.7479811,18.8732277 13.3152503,18.574155 C12.6233766,18.0978242 12.0953858,17.400865 11.8242666,16.6165582 C11.5470215,15.8187614 11.5449566,14.931054 11.8255055,14.1339992 C12.0201552,13.5722768 12.3441355,13.0533852 12.769708,12.6310817 C13.2946703,12.1044333 13.9771832,11.7279283 14.7124884,11.5735356 C15.3421402,11.441806 16.0060692,11.4669648 16.6225059,11.6497539 C17.1464357,11.8056305 17.6294808,12.0869638 18.0251126,12.4572634 C18.4250117,12.0675382 18.8229837,11.6756546 19.2221257,11.2851875 C19.4315049,11.0750812 19.6515527,10.8741481 19.8543243,10.6582412 C19.2480744,10.1084575 18.5373414,9.66645863 17.7608763,9.38708137 C16.3628123,8.88289377 14.7862047,8.87216925 13.3787799,9.34951181 Z"/>
  </g>
</svg>
