<svg xmlns="http://www.w3.org/2000/svg" width="30" height="30" viewBox="0 0 30 30">
  <g fill="none" fill-rule="evenodd">
    <path fill="#22333E" d="M0,15 C0,6.71572834 6.71572834,0 15,0 C23.2842717,0 30,6.71572834 30,15 C30,23.2842717 23.2842717,30 15,30 C6.71572834,30 0,23.2842717 0,15 Z"/>
    <path fill="#FFFFFF" d="M11.2656885,11.8549072 L7.91266148,11.8549072 L7.91266148,22.0684768 L11.2656885,22.0684768 L11.2656885,11.8549072 Z M11.4865273,8.69543807 C11.4647648,7.69400403 10.7583886,6.931252 9.61133921,6.931252 C8.46428979,6.931252 7.71438866,7.69400403 7.71438866,8.69543807 C7.71438866,9.67612893 8.44212556,10.4608443 9.56781427,10.4608443 L9.58924193,10.4608443 C10.7583886,10.4608443 11.4865273,9.67612893 11.4865273,8.69543807 Z M23.3579865,16.2123281 C23.3579865,13.0751613 21.7038381,11.6150728 19.4973918,11.6150728 C17.7171551,11.6150728 16.9201131,12.6064064 16.4750874,13.3018448 L16.4750874,11.8551783 L13.1216586,11.8551783 C13.1658532,12.8135669 13.1216586,22.068748 13.1216586,22.068748 L16.4750874,22.068748 L16.4750874,16.3646481 C16.4750874,16.0593981 16.4968498,15.7548938 16.5855068,15.5363449 C16.8278402,14.9265229 17.3796025,14.2951443 18.305947,14.2951443 C19.5197569,14.2951443 20.0049595,15.2317051 20.0049595,16.6042113 L20.0049595,22.0684768 L23.3578526,22.0684768 L23.3579865,16.2123281 Z"/>
  </g>
</svg>
