<svg xmlns="http://www.w3.org/2000/svg" width="30" height="30" viewBox="0 0 30 30">
  <g fill="none" fill-rule="evenodd">
    <path fill="#22333E" d="M0,15 C0,6.71572834 6.71572834,0 15,0 C23.2842717,0 30,6.71572834 30,15 C30,23.2842717 23.2842717,30 15,30 C6.71572834,30 0,23.2842717 0,15 Z"/>
    <path fill="#FFFFFF" d="M14.977268,12.1921879 L15.0083158,12.7112217 L14.4908518,12.6476666 C12.607283,12.4040384 10.9617475,11.5778213 9.56459476,10.1902002 L8.88154231,9.50168594 L8.70560456,10.0101273 C8.33303049,11.1435277 8.57106392,12.3404833 9.34725989,13.1455154 C9.76123107,13.5904015 9.66808756,13.6539567 8.95398727,13.3891435 C8.70560456,13.3044033 8.48826969,13.2408481 8.46757113,13.2726257 C8.39512617,13.3467734 8.64350888,14.3106934 8.84014519,14.6920243 C9.10922646,15.2216507 9.65773828,15.7406846 10.2579965,16.0478679 L10.7651112,16.291496 L10.164853,16.3020885 C9.58529332,16.3020885 9.56459476,16.312681 9.62669044,16.5351241 C9.83367603,17.2236384 10.6512691,17.9545228 11.5620057,18.2722986 L12.2036611,18.4947417 L11.6448,18.8337025 C10.8168576,19.3209588 9.84402531,19.5963645 8.87119303,19.6175496 C8.40547545,19.6281421 8.02255211,19.6705122 8.02255211,19.7022898 C8.02255211,19.8082151 9.28516421,20.4013966 10.0199631,20.6344322 C12.2243596,21.3229465 14.8427273,21.0263557 16.8090905,19.8505852 C18.2062432,19.0137755 19.6033959,17.3507487 20.2554006,15.7406846 C20.6072761,14.8826898 20.9591516,13.3149958 20.9591516,12.5629263 C20.9591516,12.0756701 20.9901994,12.0121149 21.5697591,11.4295259 C21.9112853,11.090565 22.232113,10.7198266 22.2942086,10.6139013 C22.3977014,10.4126433 22.3873522,10.4126433 21.8595389,10.5927163 C20.9798501,10.9104921 20.8556588,10.868122 21.2903285,10.3914582 C21.6111562,10.0524974 21.9940795,9.43813078 21.9940795,9.25805781 C21.9940795,9.22628023 21.8388403,9.27924287 21.6629026,9.37457561 C21.4766155,9.48050089 21.0626444,9.6393888 20.752166,9.73472154 L20.1933049,9.91479451 L19.6861902,9.56524111 C19.4067596,9.37457561 19.013487,9.16272507 18.8065014,9.0991699 C18.2786882,8.95087452 17.4714444,8.97205957 16.9953775,9.14154001 C15.7017175,9.61820374 14.8841245,10.8469369 14.977268,12.1921879 Z"/>
  </g>
</svg>
