<svg xmlns="http://www.w3.org/2000/svg" width="40" height="40" viewBox="0 0 40 40">
  <path fill="#00AEF9" d="M30.75,33.5 C35,33.5 38.75,31.5 39.75,29 C40,29.5 40,30 40,30.5 C40,33.75 36,36.25 30.75,36.25 C25.5,36.25 21.5,33.75 21.5,30.5 C21.5,30 21.5,29.5 21.75,29.25 C23,31.75 26.5,33.5 30.75,33.5 Z M30.75,28.25 C35,28.25 38.75,26.25 39.75,23.75 C40,24 40,24.5 40,25 C40,28.25 36,30.75 30.75,30.75 C25.5,30.75 21.5,28.25 21.5,25 C21.5,24.5 21.5,24 21.75,23.75 C23,26.25 26.5,28.25 30.75,28.25 Z M30.75,25.25 C25.6413661,25.25 21.5,22.6756373 21.5,19.5 C21.5,16.3243627 25.6413661,13.75 30.75,13.75 C35.8586339,13.75 40,16.3243627 40,19.5 C40,22.6756373 35.8586339,25.25 30.75,25.25 Z M9.25,28.25 C13.5,28.25 17.25,26.25 18.25,23.75 C18.5,24.25 18.5,24.75 18.5,25 C18.5,28.25 14.5,30.75 9.25,30.75 C4,30.75 0,28.25 0,25 C0,24.5 0,24 0.25,23.75 C1.25,26.25 4.75,28.25 9.25,28.25 Z M9.25,22.75 C13.5,22.75 17.25,20.75 18.25,18.25 C18.5,18.75 18.5,19.25 18.5,19.5 C18.5,22.75 14.5,25.25 9.25,25.25 C4,25.25 0,22.75 0,19.5 C0,19 0,18.5 0.25,18.25 C1.25,20.75 4.75,22.75 9.25,22.75 Z M9.25,17.25 C13.5,17.25 17.25,15.25 18.25,12.75 C18.5,13.25 18.5,13.75 18.5,14 C18.5,17.25 14.5,19.75 9.25,19.75 C4,19.75 0,17.25 0,14 C0,13.5 0,13 0.25,12.75 C1.25,15.25 4.75,17.25 9.25,17.25 Z M9.25,14.5 C4.14136606,14.5 0,11.9256373 0,8.75 C0,5.57436269 4.14136606,3 9.25,3 C14.3586339,3 18.5,5.57436269 18.5,8.75 C18.5,11.9256373 14.3586339,14.5 9.25,14.5 Z M9.25,33.5 C13.5,33.5 17.25,31.5 18.25,29 C18.5,29.5 18.5,30 18.5,30.25 C18.5,33.5 14.5,36 9.25,36 C4,36 0,33.5 0,30.25 C0,29.75 0,29.25 0.25,29 C1.25,31.75 4.75,33.5 9.25,33.5 Z"/>
</svg>
