<svg xmlns="http://www.w3.org/2000/svg" width="40" height="40" viewBox="0 0 40 40">
  <path fill="#00AEF9" d="M19.93,0 C16.8084,5.6344 10.5944,5.9432 5,5.9432 C5,5.9432 5,14.1464 5,21.5044 C5,30.2516 7.2884,33.522 10.9628,35.2352 C16.5764,37.8532 19.93,40 19.93,40 C19.93,40 23.2836,37.8532 28.8972,35.2352 C32.5712,33.522 34.86,30.2516 34.86,21.5044 C34.86,14.1464 34.86,5.9432 34.86,5.9432 C29.2656,5.9432 23.0516,5.6344 19.93,0 Z M27.0229886,28.5793103 C27.0229886,29.3639356 26.3869242,30 25.6022989,30 L14.4206897,30 C13.6360644,30 13,29.3639356 13,28.5793103 L13,19.9264367 C13,19.5496464 13.1496794,19.1882884 13.4161104,18.9218574 C13.6825414,18.6554264 14.0438993,18.5057471 14.4206897,18.5057471 L14.6413793,18.5057471 C14.6413793,18.4781609 14.6413793,18.4505746 14.6413793,18.4183907 L14.6413793,15.3747126 C14.6413794,12.4063408 17.0477202,10 20.016092,10 C22.9844638,10 25.3908046,12.4063408 25.3908047,15.3747126 L25.3908047,18.4229884 C25.3908047,18.4505746 25.3908047,18.4781609 25.3908047,18.5103448 L25.6114943,18.5103448 C26.3961196,18.5103448 27.032184,19.1464092 27.032184,19.9310344 L27.0229886,28.5793103 Z M20.0114943,11.8390804 C18.0598687,11.8416133 16.478395,13.423087 16.4758621,15.3747126 L16.4758621,18.4229884 C16.4758621,18.4505746 16.4758621,18.4781609 16.4758621,18.5103448 L23.5425288,18.5103448 C23.5425288,18.4827586 23.5425288,18.4551723 23.5425288,18.4229884 L23.5425288,15.3747126 C23.5400031,13.4248778 21.9613241,11.8441432 20.0114943,11.8390804 L20.0114943,11.8390804 Z"/>
</svg>
