<svg xmlns="http://www.w3.org/2000/svg" width="40" height="40" viewBox="0 0 40 40">
  <path fill="#00AEF9" fill-rule="evenodd" d="M37.3182465,9.96084448 C35.5298781,6.89680523 33.103834,4.47076122 30.0397948,2.6823928 C26.9751163,0.894024388 23.6294769,0 20.0006393,0 C16.3721213,0 13.025523,0.894024388 9.96148375,2.6823928 C6.89712487,4.47044158 4.47108085,6.89648559 2.68271244,9.96084448 C0.894024388,13.0252034 0,16.3718016 0,20 C0,23.628518 0.894344025,26.974477 2.6823928,30.0391555 C4.47076122,33.1028751 6.89680523,35.5292388 9.96116412,37.3176072 C13.025523,39.1059756 16.3718016,40 20.0003196,40 C23.6288376,40 26.9754359,39.1059756 30.0394752,37.3176072 C33.1035144,35.5295584 35.5295584,33.1031948 37.3179268,30.0391555 C39.1059756,26.9747966 40,23.6281984 40,20 C40,16.371482 39.1059756,13.0248837 37.3182465,9.96084448 L37.3182465,9.96084448 Z M35.3390548,26.4713685 C34.4536606,28.5285516 33.2687667,30.2993399 31.784373,31.7837337 C30.3002989,33.2681274 28.5291908,34.4530214 26.4720078,35.3380959 C24.4145051,36.2238098 22.2575954,36.6665068 20.0006393,36.6665068 C17.7436832,36.6665068 15.5867734,36.2238098 13.5292707,35.3380959 C11.4720877,34.4530214 9.70097969,33.2681274 8.21658596,31.7837337 C6.73251187,30.2993399 5.54761791,28.5288712 4.66190408,26.4713685 C3.77650988,24.4141855 3.33381279,22.2566365 3.33381279,20 C3.33381279,17.7430439 3.77650988,15.5861342 4.66190408,13.5286315 C5.54729827,11.4714484 6.73219223,9.70066005 8.21658596,8.21594668 C9.70097969,6.73187259 11.4720877,5.54697863 13.5292707,4.6612648 C15.5864538,3.77619025 17.7436832,3.33349315 20.0006393,3.33349315 C22.2572757,3.33349315 24.4148248,3.77587061 26.4720078,4.6612648 C28.5291908,5.546659 30.2999792,6.73155296 31.784373,8.21594668 C33.2687667,9.70034041 34.4536606,11.4711288 35.3390548,13.5286315 C36.224449,15.5858145 36.6674658,17.7427243 36.6674658,20 C36.6677854,22.2569561 36.224449,24.4145051 35.3390548,26.4713685 L35.3390548,26.4713685 Z M20.0006393,30.8385495 C17.795784,30.8385495 15.8165924,30.196399 14.0630644,28.9114587 C12.3095364,27.6265184 11.1115373,25.934041 10.4693868,23.8330677 C10.3306644,23.3993205 10.3651851,22.9777194 10.5735884,22.5701824 C10.7819917,22.1626453 11.1115373,21.8890361 11.5631842,21.7499941 C11.9972511,21.610952 12.4182129,21.6457925 12.8260696,21.8541957 C13.2339263,22.062599 13.5072158,22.3924642 13.6462579,22.8437915 C14.0803248,24.2332531 14.8832526,25.3570964 16.0550415,26.2166 C17.2268303,27.075784 18.5418165,27.505376 20.0003196,27.505376 C21.4585031,27.505376 22.7741286,27.0754644 23.9455978,26.2166 C25.1177063,25.3570964 25.9206342,24.2332531 26.3547011,22.8437915 C26.4931038,22.3924642 26.7708683,22.062599 27.1876748,21.8541957 C27.6044813,21.6457925 28.029918,21.610952 28.4636653,21.7499941 C28.8977322,21.8890361 29.2189673,22.1626453 29.4273705,22.5701824 C29.6357738,22.9777194 29.6706142,23.3993205 29.5312525,23.8330677 C28.8897413,25.9337214 27.6914225,27.626838 25.9382142,28.9114587 C24.1850058,30.1960793 22.2051749,30.8385495 20.0006393,30.8385495 Z M13.333653,16.6668265 C14.2535679,16.6668265 15.0392354,16.3407969 15.6903358,15.6900161 C16.3414361,15.0392354 16.6671461,14.2535679 16.6671461,13.3333333 C16.6671461,12.4130987 16.3414361,11.6277509 15.6903358,10.9766505 C15.0392354,10.3255502 14.2535679,9.99984018 13.333653,9.99984018 C12.4134184,9.99984018 11.6277509,10.3255502 10.9766505,10.9766505 C10.3258698,11.6277509 10.0001598,12.4130987 10.0001598,13.3333333 C10.0001598,14.2535679 10.3255502,15.0392354 10.9766505,15.6900161 C11.6280705,16.3411165 12.4134184,16.6668265 13.333653,16.6668265 L13.333653,16.6668265 Z M26.6669863,9.99984018 C25.7467517,9.99984018 24.9607646,10.3255502 24.3096642,10.9766505 C23.6592031,11.6277509 23.3331735,12.4130987 23.3331735,13.3333333 C23.3331735,14.2535679 23.6592031,15.0392354 24.3096642,15.6900161 C24.9607646,16.3411165 25.7467517,16.6668265 26.6669863,16.6668265 C27.5865816,16.6668265 28.3725688,16.3407969 29.0236691,15.6900161 C29.6747695,15.0392354 30.0004795,14.2535679 30.0004795,13.3333333 C30.0004795,12.4130987 29.6747695,11.6277509 29.0236691,10.9766505 C28.3725688,10.3255502 27.5865816,9.99984018 26.6669863,9.99984018 L26.6669863,9.99984018 Z"/>
</svg>
