<svg xmlns="http://www.w3.org/2000/svg" width="240" height="41" viewBox="0 0 240 41">
  <g fill="none" fill-rule="evenodd">
    <path fill="#00AEF9" d="M214.0239,30.64335 L214.0239,14.64435 L207.6849,30.64335 L206.1324,30.64335 L199.7619,14.64435 L199.7619,30.64335 L196.1304,30.64335 L196.1304,9.92085 L201.2544,9.92085 L206.9109,24.14985 L212.5314,9.92085 L217.6569,9.92085 L217.6569,30.64335 L214.0239,30.64335 Z M226.49955,30.64335 L226.49955,9.92085 L230.13255,9.92085 L230.13255,27.44385 L239.26305,27.44385 L239.26305,30.64335 L226.49955,30.64335 Z"/>
    <path fill="#FFFFFF" d="M137.9964,18.0318 L137.7189,17.9448 C136.6299,17.6058 135.5424,17.2743 134.4549,16.9548 C134.9634,17.9658 135.2754,19.0908 135.2754,20.2968 C135.2754,24.4353 131.9094,27.8013 127.7709,27.8013 C123.6324,27.8013 120.2649,24.4353 120.2649,20.2968 C120.2649,18.3498 121.0299,16.5888 122.2494,15.2538 C122.1894,15.2568 122.1279,15.2613 122.0679,15.2628 C121.9869,15.2658 121.9059,15.2673 121.8129,15.2763 C121.1439,15.3363 120.4179,15.4248 119.5194,15.5523 C119.2749,15.5853 119.0334,15.6243 118.7904,15.6633 L118.4784,15.7128 L118.0629,15.7758 C117.4224,17.1513 117.0534,18.6798 117.0534,20.2968 C117.0534,23.6223 118.5999,26.5563 120.9774,28.5228 L120.3699,29.3688 L120.0774,29.1573 L112.8519,38.7258 C112.3869,39.3708 112.5354,40.2708 113.1804,40.7358 C113.8269,41.1993 114.7269,41.0523 115.1904,40.4073 L122.4159,30.8388 L122.1234,30.6288 L122.7744,29.7243 C124.2729,30.5208 125.9559,31.0128 127.7709,31.0128 C133.6899,31.0128 138.4869,26.2158 138.4869,20.2968 C138.4869,19.5468 138.4089,18.8163 138.2634,18.1098 C138.1764,18.0828 138.0819,18.0588 137.9964,18.0318 L137.9964,18.0318 Z M141.4677,15.82785 C141.4257,15.77235 141.3822,15.71835 141.3432,15.66435 C141.2682,15.55785 141.1782,15.46485 141.0867,15.37185 C140.5047,14.78235 139.9257,14.18985 139.3362,13.60935 C139.1967,13.47135 139.0587,13.32885 138.9312,13.18185 C138.6762,12.88635 138.4602,12.56835 138.3132,12.20985 C138.2412,12.03135 138.1872,11.84235 138.1542,11.64135 C137.9202,10.17885 137.5632,8.74635 137.1627,7.32585 C136.9767,6.66135 136.7412,6.02385 136.4187,5.43285 C136.0962,4.84335 135.6867,4.30185 135.1527,3.83085 C134.2302,3.02085 133.2012,2.38485 132.0147,1.90935 C131.1372,1.66185 130.3662,1.50585 129.6432,1.39185 C129.6942,1.24785 129.7257,1.09635 129.7077,0.93585 C129.6942,0.79485 129.6522,0.66735 129.5907,0.55185 C129.5712,0.51285 129.5367,0.48435 129.5127,0.44835 C129.4617,0.37935 129.4137,0.30735 129.3492,0.25185 C129.3102,0.21735 129.2622,0.19785 129.2202,0.17085 C129.1557,0.12885 129.0897,0.08685 129.0147,0.05985 C128.9652,0.04335 128.9097,0.04035 128.8557,0.03135 C128.7612,0.01335 128.6712,-0.00765 128.5737,0.00285 C128.3577,0.02385 128.1657,0.10785 128.0112,0.23535 C127.8567,0.36285 127.7427,0.53385 127.6812,0.72885 C127.6407,0.85635 127.6242,0.99435 127.6407,1.13835 C127.6422,1.16085 127.6557,1.17885 127.6587,1.19985 C127.3422,1.19835 127.0662,1.23135 126.7797,1.25235 C126.5907,1.26735 126.3822,1.26735 126.2037,1.29285 C125.9367,1.32885 125.6967,1.39185 125.4522,1.44885 C125.3022,1.48335 125.1387,1.50585 124.9947,1.54635 C124.7337,1.62135 124.4952,1.71435 124.2537,1.80735 C124.1457,1.84935 124.0287,1.88235 123.9252,1.92435 C123.5892,2.06685 123.2652,2.22135 122.9502,2.38485 C121.8762,2.93835 120.9762,3.65535 120.2247,4.49985 C119.9757,4.78035 119.7417,5.07585 119.5242,5.38485 C119.3067,5.69235 119.1042,6.01335 118.9182,6.34635 C118.7322,6.67785 118.5612,7.02135 118.4052,7.37535 C118.0902,8.08185 117.8322,8.83035 117.6282,9.60585 C117.5547,9.88635 117.3822,10.09185 117.1692,10.28085 C116.4372,10.92585 115.6227,11.46435 114.8517,12.05685 C114.5667,12.27435 114.2832,12.49335 114.0837,12.79785 C113.9937,12.93285 113.9427,13.06935 113.9262,13.19835 C113.8932,13.45635 114.0012,13.68735 114.2217,13.82835 C114.3312,13.89885 114.4692,13.94685 114.6327,13.96485 C114.8217,13.98735 115.0227,13.96635 115.2132,13.93785 C116.1867,13.78935 117.1632,13.63785 118.1367,13.48785 C118.4937,13.43235 118.8507,13.37385 119.2092,13.32285 C119.3712,13.30035 119.5332,13.28685 119.6952,13.26435 C120.3312,13.17885 120.9687,13.09335 121.6092,13.03485 C121.8282,13.01385 122.0472,13.01685 122.2677,13.00035 C122.2992,12.99735 122.3292,12.99735 122.3607,12.99435 C122.8272,12.96435 123.2937,12.92235 123.7617,12.92235 C123.9717,12.92235 124.1817,12.92535 124.3932,12.93285 C124.9137,12.95235 125.4297,13.00035 125.9472,13.04085 C127.8537,13.18935 129.7407,13.46985 131.6067,13.88085 C132.4677,14.06985 133.3242,14.28135 134.1762,14.51835 C134.3187,14.55735 134.4582,14.60835 134.6007,14.64885 C135.5142,14.91135 136.4232,15.19635 137.3337,15.47685 C137.6832,15.58485 138.0357,15.68685 138.3867,15.79635 C139.1877,16.04535 139.9857,16.30185 140.7987,16.51185 C140.9307,16.54635 141.0687,16.59435 141.1992,16.59435 C141.2397,16.59435 141.2757,16.57935 141.3147,16.57035 C141.4437,16.52385 141.4962,16.47435 141.5472,16.39935 C141.5967,16.32285 141.6177,16.25235 141.6207,16.18485 C141.6237,16.05285 141.5517,15.93885 141.4677,15.82785 L141.4677,15.82785 Z M1.42108547e-14,27.7218 L2.0505,24.8958 C3.447,26.4198 5.715,27.7848 8.6055,27.7848 C11.5875,27.7848 12.7365,26.3253 12.7365,24.9273 C12.7365,20.5788 0.6825,23.2803 0.6825,15.6693 C0.6825,12.2208 3.666,9.5808 8.232,9.5808 C11.4315,9.5808 14.073,10.6368 15.9675,12.5013 L13.917,15.2028 C12.27,13.5558 10.065,12.8103 7.8915,12.8103 C5.778,12.8103 4.4115,13.8678 4.4115,15.3903 C4.4115,19.2738 16.464,16.8798 16.464,24.5853 C16.464,28.0323 14.01,31.0158 8.4495,31.0158 C4.629,31.0158 1.8645,29.6493 1.42108547e-14,27.7218 L1.42108547e-14,27.7218 Z M38.8749,30.64335 L38.8749,21.57285 L28.0959,21.57285 L28.0959,30.64335 L24.4599,30.64335 L24.4599,9.92085 L28.0959,9.92085 L28.0959,18.37335 L38.8749,18.37335 L38.8749,9.92085 L42.5094,9.92085 L42.5094,30.64335 L38.8749,30.64335 Z M51.59595,30.64335 L51.59595,9.92085 L65.79345,9.92085 L65.79345,13.12185 L55.23045,13.12185 L55.23045,18.46635 L65.57595,18.46635 L65.57595,21.66285 L55.23045,21.66285 L55.23045,27.44385 L65.79345,27.44385 L65.79345,30.64335 L51.59595,30.64335 Z M86.37045,16.3845 C86.37045,14.397 84.87945,13.122 82.82895,13.122 L77.82795,13.122 L77.82795,19.7085 L82.82895,19.7085 C84.87945,19.7085 86.37045,18.4035 86.37045,16.3845 L86.37045,16.3845 Z M86.02845,30.6435 L81.46245,22.908 L77.82795,22.908 L77.82795,30.6435 L74.19345,30.6435 L74.19345,9.921 L83.29545,9.921 C87.39645,9.921 90.09945,12.5625 90.09945,16.4145 C90.09945,20.0805 87.67545,22.098 85.15845,22.503 L90.25395,30.6435 L86.02845,30.6435 Z M98.1567,30.64335 L98.1567,9.92085 L101.7912,9.92085 L101.7912,27.44385 L110.9262,27.44385 L110.9262,30.64335 L98.1567,30.64335 Z M145.4031,20.2977 C145.4031,13.8987 150.1581,9.5802 156.2751,9.5802 C160.4391,9.5802 163.0491,11.7222 164.5716,14.2092 L161.4966,15.8262 C160.5036,14.0847 158.4801,12.8097 156.2751,12.8097 C152.1771,12.8097 149.1321,15.9162 149.1321,20.2977 C149.1321,24.6162 152.1771,27.7857 156.2751,27.7857 C158.4801,27.7857 160.5036,26.4792 161.4966,24.7722 L164.6016,26.3262 C163.0191,28.8102 160.4391,31.0152 156.2751,31.0152 C150.1581,31.0152 145.4031,26.6667 145.4031,20.2977 L145.4031,20.2977 Z M184.56015,30.64335 L177.62865,21.88035 L175.79715,24.02685 L175.79715,30.64335 L172.16565,30.64335 L172.16565,9.92085 L175.79715,9.92085 L175.79715,19.76835 L183.90765,9.92085 L188.41065,9.92085 L179.99115,19.67535 L189.06315,30.64335 L184.56015,30.64335 Z"/>
  </g>
</svg>
