<svg xmlns="http://www.w3.org/2000/svg" width="40" height="40" viewBox="0 0 40 40">
  <path fill="#00AEF9" d="M269.343028,26.5345912 C268.682132,27.8553459 268.147122,29.2389937 267.706525,30.6540881 C269.185672,31.0628931 270.664819,31.3459119 272.175438,31.4716981 C272.206909,30.2767296 272.301322,29.1446541 272.458679,28.0125786 C271.388657,27.6037736 270.350107,27.1006289 269.343028,26.5345912 L269.343028,26.5345912 Z M275.385502,11.3144654 C274.504308,11.3144654 273.654585,11.3773585 272.773391,11.5031447 C272.899276,12.3836478 273.02516,13.2327044 273.245459,14.1132075 C273.843412,13.1069182 274.56725,12.1949686 275.385502,11.3773585 L275.385502,11.3144654 Z M268.304478,32.0377358 C269.437442,33.7672956 270.853646,35.3081761 272.458679,36.5974843 C272.301322,35.245283 272.175438,33.9559748 272.175438,32.6666667 C270.853646,32.5408805 269.563327,32.3207547 268.304478,32.0377358 Z M278.532624,2.06918239 C276.959063,2.60377358 275.511387,3.32704403 274.126653,4.20754717 C275.165203,4.39622642 276.172282,4.6163522 277.179361,4.93081761 C277.557016,3.95597484 278.029084,3.01257862 278.532624,2.06918239 Z M285.015694,1 C296.062092,1 305.031389,9.96226415 304.999917,21 C304.999917,32.0377358 296.03062,41 284.984223,41 C280.830022,41 276.990534,39.7421384 273.78047,37.572327 C273.5287,35.9056604 273.371344,34.3018868 273.339873,32.7610063 C273.843412,32.7924528 274.31548,32.7924528 274.787549,32.7924528 C275.826099,32.7924528 276.833178,32.7295597 277.871728,32.6037736 C279.948828,33.8930818 282.403583,34.6163522 285.015694,34.6163522 C292.537315,34.6163522 298.642731,28.5157233 298.642731,21 C298.642731,13.4842767 292.537315,7.3836478 285.015694,7.3836478 C284.512155,7.3836478 284.040087,7.3836478 283.568018,7.44654088 C283.756846,7.22641509 283.88273,7.10062893 283.88273,7.10062893 L283.88273,7.06918239 C284.480684,6.34591195 285.110108,5.68553459 285.771004,5.05660377 L286.557784,4.27044025 L285.771004,3.54716981 C284.795396,2.66666667 283.788317,1.88050314 282.718295,1.12578616 C283.473605,1.06289308 284.228914,1 285.015694,1 Z M282.340641,5.71698113 C282.277698,5.81132075 281.994457,6.12578616 281.585332,6.62893082 C280.735609,6.22012579 279.854415,5.8427673 278.941749,5.49685535 C279.413818,4.36477987 279.9803,3.2327044 280.609724,2.16352201 C281.648274,2.79245283 282.623882,3.54716981 283.568018,4.33333333 C283.158892,4.77358491 282.749767,5.24528302 282.340641,5.71698113 Z M271.105416,11.7232704 L271.105416,11.7232704 C271.262772,12.918239 271.483071,14.081761 271.797783,15.245283 C270.790704,15.7798742 269.815096,16.408805 268.87096,17.0691824 C268.052708,15.7484277 267.32887,14.3333333 266.762388,12.8867925 C268.178593,12.3836478 269.626269,11.9748428 271.105416,11.7232704 Z M268.493305,19.2704403 C269.154201,20.1823899 269.846567,21.0628931 270.538934,21.8805031 C269.90951,22.7610063 269.311557,23.7044025 268.776546,24.6477987 C267.612111,23.8930818 266.510618,23.0754717 265.472068,22.163522 C266.416205,21.0943396 267.423284,20.1509434 268.493305,19.2704403 Z M273.591642,28.4528302 C274.346952,29.6477987 275.291088,30.6855346 276.36111,31.5660377 C275.354031,31.6289308 274.346952,31.6289308 273.339873,31.5660377 C273.371344,30.4968553 273.465758,29.4591195 273.591642,28.4528302 Z M276.518466,6.6918239 L276.518466,6.6918239 C276.203753,7.63522013 275.920512,8.61006289 275.731685,9.6163522 C274.693135,9.6163522 273.686056,9.67924528 272.647506,9.80503145 C272.553092,8.51572327 272.553092,7.22641509 272.678977,5.90566038 C273.969297,6.06289308 275.259617,6.34591195 276.518466,6.6918239 Z M278.312325,7.25786164 L278.312325,7.25786164 C279.036163,7.5408805 279.760001,7.82389937 280.452368,8.13836478 C279.47676,8.48427673 278.532624,8.95597484 277.651429,9.52201258 C277.840257,8.7672956 278.060555,8.01257862 278.312325,7.25786164 Z M265.157356,23.672956 C266.132964,24.4591195 267.108572,25.1823899 268.147122,25.8427673 C267.612111,26.9119497 267.140043,28.0440252 266.730917,29.1761006 C265.944137,27.4779874 265.409126,25.6226415 265.157356,23.672956 Z M270.916589,6.81761006 L270.916589,6.81761006 C270.853646,7.88679245 270.885118,8.95597484 270.94806,10.0251572 C269.878039,10.2138365 268.839489,10.4654088 267.800938,10.7798742 C268.682132,9.33333333 269.720683,8.01257862 270.916589,6.81761006 Z M269.720683,18.3584906 C270.444521,17.8238994 271.231301,17.3207547 272.018082,16.8805031 C271.640427,18.0440252 271.4516,19.2389937 271.388657,20.4968553 C270.790704,19.8050314 270.224222,19.081761 269.720683,18.3584906 Z M269.972452,25.3081761 C270.444521,24.490566 270.94806,23.672956 271.514542,22.8867925 C271.703369,24.2075472 272.049553,25.4339623 272.584563,26.5974843 C271.671898,26.2201258 270.822175,25.7798742 269.972452,25.3081761 Z M267.643582,18.0125786 L267.643582,18.0125786 C266.730917,18.7358491 265.849723,19.5534591 265,20.4339623 C265.031471,18.5157233 265.377655,16.6289308 265.944137,14.8679245 C266.447676,15.9685535 267.014158,17.0062893 267.643582,18.0125786 Z" transform="translate(-265 -1)"/>
</svg>
