<svg xmlns="http://www.w3.org/2000/svg" width="37" height="40" viewBox="0 0 37 40">
  <path fill="#00AEF9" fill-rule="evenodd" d="M68.1996292,7.19473101 C68.2618937,7.19473101 68.0086847,6.58453901 68.1996292,5.99510184 L72.9953786,1.19796879 C73.5848157,1.00840801 74.1950077,1.26023328 74.1950077,1.19796879 L74.1950077,5.99510184 C74.1950077,6.44894079 73.4492175,7.19473101 72.9953786,7.19473101 L68.1996292,7.19473101 Z M72.9953786,29.9796602 L75.3932533,29.9796602 L75.3932533,22.7846524 L72.9953786,22.7846524 L72.9953786,29.9796602 Z M90.9178661,33.2824454 C89.6144628,33.2824454 88.329047,33.0527587 87.0975937,32.6003034 C85.514692,32.0164008 84.1490242,31.1031883 83.0310307,29.9796602 L82.588261,29.9796602 L82.588261,29.5216702 C81.4675002,28.2583929 80.6552945,26.7543596 80.1903863,25.1396338 L80.1903863,29.9796602 L77.7925116,29.9796602 L77.7925116,13.1903863 L80.1903863,13.1903863 L80.1903863,18.9422415 C80.2664874,18.6821143 80.3384374,18.4206035 80.4339097,18.1632436 C82.0555537,13.7604523 86.2950737,10.8021972 90.9856652,10.8021972 C92.3112071,10.8021972 93.6173777,11.036035 94.8709694,11.4981758 C95.1836755,11.6130192 95.4839287,11.7472338 95.780031,11.8855993 L95.780031,3.59750387 C95.780031,1.61057481 94.1694562,0 92.1825271,0 L75.3932533,0 C75.3628128,0 75.0943837,0.268429135 75.3932533,1.19962918 L75.3932533,5.99537857 C75.0943837,6.90167281 73.9030565,8.09438371 72.9953786,8.39325326 L68.1996292,8.39325326 C67.2684291,8.09438371 67,8.36281285 67,8.39325326 L67,32.3775348 C67,34.3644639 68.6105748,35.9750387 70.5975039,35.9750387 L92.1825271,35.9750387 C93.5855536,35.9750387 94.7865664,35.1656004 95.3801546,33.9936443 L94.5361248,32.6805554 C93.3669361,33.0776644 92.1451684,33.2824454 90.9178661,33.2824454 L90.9178661,33.2824454 Z M96.4916449,25.3309933 C96.4293804,25.4333838 96.3601977,25.528856 96.2923985,25.6284792 C96.1401965,25.8553987 95.9769251,26.0698653 95.7984336,26.2732626 C95.7915153,26.2801809 95.7859807,26.2884828 95.7790624,26.2954011 L95.7790624,26.2926338 C95.7029614,26.3798041 95.624093,26.4669744 95.5424574,26.5499937 C95.3404437,26.753391 95.1259771,26.9401845 94.9004413,27.1145251 C94.8271075,27.1712549 94.7579248,27.2349031 94.6818237,27.287482 C94.3788032,27.5019485 94.0564115,27.6901257 93.7201833,27.849246 C93.6440822,27.8852211 93.5638302,27.9087432 93.4877292,27.9419509 C93.2193,28.0567943 92.9453363,28.1536502 92.6616869,28.2311349 C92.5426926,28.262959 92.4236982,28.2892484 92.3019366,28.3141542 C92.0418094,28.3695004 91.7802985,28.4068591 91.513253,28.4289976 C91.3942587,28.4386832 91.276648,28.4525198 91.1590373,28.4566707 C91.0981564,28.4580544 91.0386592,28.4705073 90.9791621,28.4705073 C90.7674628,28.4705073 90.5571472,28.4359159 90.3468316,28.4151611 C90.2153843,28.4027082 90.0853207,28.4027082 89.9538735,28.3805697 C89.8971436,28.3708841 89.8404137,28.3598149 89.7836839,28.3501293 C89.441921,28.2850975 89.1015418,28.1979272 88.7653135,28.0733982 C88.2630466,27.889372 87.8105913,27.6306285 87.3858092,27.3414445 C86.262281,26.5776668 85.4431571,25.4901137 84.9879345,24.2531258 C84.7623986,23.6415502 84.6018946,23.0064524 84.5714542,22.3478324 C84.5299445,21.5148719 84.6530899,20.6611566 84.9602614,19.8295797 C84.9602614,19.8281961 84.9602614,19.8268124 84.961645,19.8268124 C84.9685633,19.8074412 84.9810162,19.7894537 84.9879345,19.7686989 C85.122149,19.4158668 85.2895713,19.0824058 85.4777484,18.7683161 C85.5386293,18.6645419 85.6091957,18.5690697 85.6769948,18.4708302 C85.8291969,18.2439107 85.9924682,18.0294441 86.1709598,17.8260468 C86.2553627,17.7319582 86.3383821,17.636486 86.426936,17.5479321 C86.6289497,17.3445347 86.8434163,17.1591249 87.0689521,16.9847843 C87.1422858,16.9280545 87.2100849,16.8644063 87.2875696,16.8104438 C87.5905901,16.5959772 87.9129818,16.4078001 88.2492101,16.2500634 C88.3253111,16.2127047 88.4055631,16.1905662 88.4830478,16.1559748 C88.751477,16.0425151 89.0254407,15.9442755 89.3077064,15.8667908 C89.4267008,15.8349668 89.5456951,15.810061 89.6660731,15.7851552 C89.927584,15.729809 90.1890949,15.6910666 90.4561403,15.6703118 C90.5751347,15.6592425 90.6927454,15.645406 90.8117398,15.6426387 C90.8712369,15.6398714 90.9293505,15.6274185 90.9902313,15.6274185 C91.2005469,15.6274185 91.4122462,15.6633935 91.6225618,15.6827647 C91.754009,15.6966012 91.8840726,15.6966012 92.0155199,15.7187397 C92.4140126,15.7837715 92.8111217,15.8792437 93.2040798,16.0231439 C94.2418213,16.4064164 95.0969203,17.0484325 95.7790624,17.8260468 C95.917428,17.9823998 96.06963,18.1263 96.1900081,18.2951059 C96.9136598,19.2996397 97.338442,20.5020362 97.3979392,21.7500933 C97.4394488,22.5844375 97.3163035,23.4381528 97.009132,24.268346 C96.8693828,24.6460839 96.6908913,24.9961487 96.4916449,25.3309933 M103.408538,38.0952138 L97.864231,29.4639718 L97.6110221,29.6369287 L97.0755475,28.8468615 C97.6165567,28.3625822 98.1105217,27.8201893 98.5366875,27.2155319 C98.9614697,26.6122582 99.3198364,25.9453363 99.5868819,25.2175336 C99.6961907,24.9214313 99.7902792,24.6211781 99.8663803,24.3223086 C100.022733,23.7218022 100.112671,23.1171448 100.144495,22.518022 C100.174935,21.916132 100.145879,21.3211602 100.060092,20.7344903 C99.6740522,18.086174 98.1340438,15.6758464 95.7790624,14.2354612 C95.2740282,13.9255224 94.7316353,13.6584769 94.1546511,13.445394 C93.6745227,13.2682861 93.187476,13.1451408 92.701813,13.0524359 C92.6340138,13.039983 92.5662147,13.0219955 92.4984156,13.0123099 C92.0362747,12.9334415 91.5741339,12.8960828 91.1133766,12.8905482 C91.071867,12.8891645 91.0289737,12.8780953 90.9860803,12.8780953 C90.9376524,12.8780953 90.8919918,12.8891645 90.8449475,12.8891645 C90.4353855,12.8960828 90.0285908,12.9209886 89.6273308,12.9818695 C89.5885884,12.9874041 89.5512298,12.9984733 89.5124874,13.0053916 C89.1402841,13.0662724 88.7736155,13.1534427 88.4124814,13.2586005 C88.3280784,13.28489 88.2409082,13.3084121 88.1565052,13.3360852 C87.776,13.4592305 87.4037967,13.6045144 87.0440463,13.7760876 C86.9803981,13.806528 86.9195173,13.8411194 86.8558692,13.8743271 C86.5376284,14.0348312 86.2290733,14.2147064 85.9302037,14.4098018 C85.8651719,14.4540787 85.7987565,14.4942047 85.736492,14.5370981 C85.407182,14.7667848 85.0958596,15.0186101 84.7983737,15.2898066 C84.7347255,15.3479201 84.6738447,15.4101846 84.6115802,15.4696817 C84.3459184,15.7284253 84.0927095,15.9996217 83.857488,16.291573 C83.8242803,16.331699 83.7869216,16.3704414 83.7537139,16.4133347 C83.5018886,16.7357264 83.2749692,17.0830239 83.0660372,17.4455416 C83.0176093,17.5285609 82.970565,17.6143475 82.9235207,17.7001341 C82.8750928,17.7928391 82.8391177,17.8938459 82.7934571,17.9865508 C82.721507,18.1318346 82.6537079,18.2785021 82.5886761,18.4293205 C82.5222606,18.5815226 82.440625,18.7226554 82.3811278,18.8803921 C82.1638939,19.4753639 82.0089245,20.0758704 81.9176033,20.6791441 C81.8248984,21.2810342 81.7958416,21.8829242 81.8235147,22.477896 C81.866408,23.3703537 82.0393649,24.2448239 82.3313162,25.0764007 C82.4060336,25.2936346 82.4973549,25.5053339 82.5886761,25.7156495 C83.131069,26.9554047 83.946042,28.0706309 84.9879345,28.9741578 C85.8001401,29.6784384 86.7451767,30.2595736 87.8147423,30.6525317 C88.2741159,30.8213377 88.7362568,30.9361811 89.1983976,31.0261187 C89.3077064,31.0482572 89.4156315,31.0676283 89.5249403,31.0856159 C89.9801629,31.1575659 90.4367692,31.2032266 90.8892245,31.2046102 C90.8989101,31.2046102 90.9085956,31.2073775 90.9182812,31.2073775 C90.9805457,31.2073775 91.0400429,31.1963083 91.1009237,31.1949246 C91.4080952,31.1880064 91.713883,31.1700188 92.0169036,31.1326601 C92.1428162,31.1174399 92.2673452,31.0939178 92.3932578,31.0717793 C92.6423158,31.0316533 92.8886064,30.9818417 93.1335134,30.9195772 C93.263577,30.8877532 93.3936406,30.8531618 93.5223206,30.8158031 C93.7686112,30.7410857 94.0121346,30.6552991 94.2515069,30.5612105 C94.3621994,30.5183172 94.4728918,30.4809585 94.5808169,30.4339142 C94.9211961,30.2858631 95.254657,30.1225917 95.5770487,29.9357983 C95.5784324,29.9357983 95.5798161,29.9344146 95.5798161,29.9344146 L95.7790624,30.2305169 L96.0793156,30.6719029 L95.824723,30.8448598 L101.367646,39.4747182 C101.476955,39.6352222 101.623623,39.7528329 101.781359,39.8427705 C101.829787,39.8718272 101.88375,39.8856638 101.936329,39.905035 C102.052556,39.9520793 102.17155,39.9839033 102.296079,39.9949726 C102.380482,40.0005072 102.462118,40.0032745 102.546521,39.9935889 C102.58803,39.9880543 102.62954,39.985287 102.67105,39.9756014 C102.810799,39.9423937 102.951932,39.8898148 103.079228,39.8054118 C103.36011,39.6144674 103.538602,39.3280507 103.598099,39.0181119 C103.65898,38.7081731 103.599482,38.3760958 103.408538,38.0952138" transform="translate(-67)"/>
</svg>
