<svg xmlns="http://www.w3.org/2000/svg" width="40" height="30" viewBox="0 0 40 30">
  <path fill="#00AEF9" fill-rule="evenodd" d="M468,6 L502,6 C503.656854,6 505,7.34314575 505,9 L505,33 C505,34.6568542 503.656854,36 502,36 L468,36 C466.343146,36 465,34.6568542 465,33 L465,9 L465,9 C465,7.34314575 466.343146,6 468,6 L468,6 Z M465,14 L465,15 L505,15 L505,14 L465,14 Z M477,11 C477.552285,11 478,10.5522847 478,10 C478,9.44771525 477.552285,9 477,9 C476.447715,9 476,9.44771525 476,10 C476,10.5522847 476.447715,11 477,11 Z M473,11 C473.552285,11 474,10.5522847 474,10 C474,9.44771525 473.552285,9 473,9 C472.447715,9 472,9.44771525 472,10 C472,10.5522847 472.447715,11 473,11 Z M469,11 C469.552285,11 470,10.5522847 470,10 C470,9.44771525 469.552285,9 469,9 C468.447715,9 468,9.44771525 468,10 C468,10.5522847 468.447715,11 469,11 Z" transform="translate(-465 -6)"/>
</svg>
