<svg xmlns="http://www.w3.org/2000/svg" width="30" height="30" viewBox="0 0 30 30">
  <path fill="#00AEF9" fill-rule="evenodd" d="M470.67021,12.5724704 C470.413827,11.7008041 470.22407,10.8153341 470.137689,9.91035457 C470.033516,8.81856315 470.069774,7.73529944 470.390882,6.67669858 C470.742972,5.51576528 471.394513,4.57078533 472.420353,3.9018821 C473.022323,3.5094237 473.68503,3.26666023 474.38743,3.13346855 C475.19204,2.98089015 476.001927,2.96831332 476.816844,3.04935718 C478.317474,3.19862266 479.742582,3.62678698 481.131432,4.19323507 C481.80328,4.46722588 482.457521,4.77962203 483.099491,5.11760129 C483.152069,5.14527031 483.203051,5.17600686 483.266242,5.21177413 C483.214278,5.25692801 483.174339,5.29343149 483.132498,5.32760365 C482.519546,5.82865223 481.903834,6.32644924 481.295606,6.8332034 C481.194132,6.91774423 481.115849,6.92081175 481.001615,6.872529 C480.200502,6.53405894 479.376873,6.26565101 478.520974,6.103686 C477.832009,5.97337778 477.138504,5.90988014 476.438312,5.99080129 C475.898858,6.05313328 475.381,6.1919692 474.905841,6.46295384 C473.994604,6.98271429 473.497052,7.7932142 473.284718,8.79745862 C473.13987,9.4823743 473.144778,10.1739772 473.231344,10.8649665 C473.424229,12.4042476 473.951536,13.8385582 474.620439,15.2261199 C475.462043,16.9721518 476.519233,18.5825993 477.718081,20.1014508 C479.429511,22.2696346 481.373766,24.2039509 483.561214,25.8923748 C483.59919,25.9216389 483.634773,25.9540319 483.687105,25.9980815 C482.891636,26.4633014 482.110769,26.9199323 481.31622,27.3846001 C481.247998,27.3316547 481.178611,27.2805499 481.112168,27.2257026 C479.607857,25.9842776 478.211338,24.6310109 476.918011,23.1714853 C475.301183,21.3469249 473.868835,19.3896023 472.680908,17.2577991 C471.849426,15.7655124 471.153161,14.2146974 470.67021,12.5724704 Z M493.954957,21.3702319 C491.45407,24.3865848 488.573915,26.9736078 485.24265,29.0465145 C483.595577,30.0714954 481.866661,30.9291737 480.02026,31.5388738 C479.153073,31.8251961 478.270057,32.0465483 477.366059,32.1777767 C476.547154,32.2966124 475.724077,32.3329318 474.899589,32.2481456 C474.196207,32.1757522 473.514052,32.0131123 472.871468,31.7094893 C471.521085,31.071568 470.666597,30.0146236 470.257513,28.5894542 C470.038676,27.8269303 469.97346,27.0460012 470.009228,26.2550721 C470.08475,24.5859736 470.540092,23.0089006 471.165744,21.4730551 C471.437526,20.8058084 471.747775,20.1565373 472.082502,19.5188 C472.110355,19.4657933 472.14146,19.4146271 472.183485,19.3406999 C472.754044,20.036904 473.313682,20.7196724 473.878105,21.4083305 C473.825528,21.5382706 473.773442,21.6643456 473.723257,21.7911569 C473.419205,22.5592637 473.171104,23.3440578 473.031347,24.1598338 C472.900548,24.9233393 472.855149,25.6892375 473.014047,26.4547062 C473.312332,27.8924525 474.182894,28.7803766 475.605978,29.1251044 C476.17672,29.2633881 476.75777,29.2864559 477.3425,29.2422222 C478.723252,29.1378039 480.022714,28.7280447 481.285919,28.1872411 C482.966551,27.4678465 484.521293,26.5289402 485.993211,25.4508299 C488.484159,23.6261468 490.677619,21.4940983 492.570647,19.0537641 C492.596966,19.0197147 492.626046,18.9878125 492.669789,18.9360941 C493.132494,19.723649 493.583051,20.4906514 494.03643,21.2623779 C494.007166,21.3013354 493.982503,21.33698 493.954957,21.3702319 Z M498.506928,22.4842444 C498.843251,23.4635806 499.101475,24.4625489 499.239636,25.4895543 C499.38657,26.5810389 499.399147,27.6709285 499.150678,28.7519836 C498.928344,29.7195405 498.510364,30.5856852 497.80735,31.2999264 C497.141576,31.9763757 496.332978,32.3995706 495.420022,32.633745 C494.602345,32.8434407 493.770986,32.8880424 492.932448,32.8304344 C491.245926,32.7143594 489.651123,32.2370535 488.106811,31.5780276 C487.506314,31.3217057 486.924774,31.0209048 486.334951,30.7396747 C486.287036,30.716791 486.242251,30.6877109 486.177465,30.650962 C486.99821,30.0676426 487.803434,29.4953662 488.602645,28.9273843 C488.918048,29.0466495 489.219155,29.1655465 489.523821,29.2745662 C490.281192,29.5454281 491.056292,29.7475776 491.856301,29.8408916 C492.554162,29.9223035 493.251409,29.9211379 493.936386,29.7423628 C495.2518,29.3991074 496.074631,28.5577483 496.41715,27.2471814 C496.595864,26.5633087 496.610465,25.8666137 496.536906,25.1674034 C496.368929,23.5719867 495.831131,22.0893934 495.143516,20.6547146 C494.298476,18.8915046 493.232575,17.2668851 492.022377,15.7355796 C490.281928,13.5334076 488.303869,11.5707475 486.071696,9.86649518 C486.049856,9.84986922 486.028138,9.83299787 486.007585,9.81483816 C485.999917,9.80796691 485.995806,9.7971079 485.978444,9.76980697 C486.616672,9.27360508 487.256434,8.77629887 487.90141,8.27494354 C487.933558,8.29819534 487.960613,8.31555749 487.985215,8.33580312 C491.169668,10.9620903 493.924484,13.9699769 496.10046,17.4896484 C497.077342,19.0696661 497.902382,20.7242246 498.506928,22.4842444 Z M499.183758,7.31572417 C499.393822,8.07027253 499.445111,8.84132414 499.414435,9.6197378 C499.3783,10.5359444 499.212163,11.431476 498.97032,12.3137558 C498.582033,13.7301521 498.007855,15.0715169 497.32386,16.3679732 C497.306559,16.4006729 497.283859,16.4304892 497.257601,16.4711032 C497.218337,16.4187713 497.184901,16.3758874 497.153306,16.3316538 C496.651582,15.6293146 496.152068,14.9252576 495.64605,14.2259859 C495.575497,14.1285002 495.570466,14.0529778 495.616295,13.9435901 C495.973477,13.0896541 496.256854,12.212589 496.40661,11.2966278 C496.538943,10.4872322 496.572134,9.67783662 496.366733,8.8742693 C496.031943,7.56431592 495.191321,6.75909214 493.893637,6.41982452 C493.401116,6.29111142 492.89743,6.25724601 492.38951,6.27215415 C491.188883,6.30743062 490.045741,6.60994936 488.928183,7.02381904 C487.489393,7.55664712 486.140851,8.27045883 484.855253,9.10249272 C481.746139,11.114908 479.078931,13.6078195 476.811359,16.5324536 C476.774733,16.5796934 476.7378,16.6267491 476.68553,16.693621 C476.184665,16.0522028 475.692758,15.4221343 475.199501,14.7904708 C475.23674,14.742188 475.265636,14.7023103 475.296986,14.6644571 C477.548852,11.9476781 480.096672,9.55182293 483.014926,7.55940789 C484.612245,6.46884348 486.291343,5.52631754 488.085167,4.79514368 C489.124381,4.37158063 490.188565,4.02844794 491.289804,3.80488714 C492.170673,3.62611213 493.059517,3.5252521 493.958914,3.55936291 C494.87236,3.59408723 495.760897,3.75605224 496.591459,4.15679294 C497.942333,4.80857941 498.784428,5.88153626 499.183758,7.31572417 Z" transform="translate(-470 -3)"/>
</svg>
