<svg xmlns="http://www.w3.org/2000/svg" width="40" height="33" viewBox="0 0 40 33">
  <path fill="#00AEF9" fill-rule="evenodd" d="M675.591181,26.1393095 L675.591181,17.9156099 C676.435949,17.3955395 676.999185,16.4623599 676.999185,15.3974291 L671.088585,15.3974291 C671.088585,16.4623599 671.651822,17.3955395 672.496589,17.9156099 L672.496589,26.1393095 C671.651822,26.6595533 671.088585,27.5927329 671.088585,28.6574903 L676.999185,28.6574903 C676.999185,27.5927329 676.435949,26.6595533 675.591181,26.1393095 M697.503307,26.1393095 L697.503307,17.9156099 C698.348074,17.3955395 698.911311,16.4623599 698.911311,15.3974291 L693.000884,15.3974291 C693.000884,16.4623599 693.56412,17.3955395 694.408715,17.9156099 L694.408715,26.1393095 C693.56412,26.6595533 693.000884,27.5927329 693.000884,28.6574903 L698.911311,28.6574903 C698.911311,27.5927329 698.348074,26.6595533 697.503307,26.1393095 M686.547279,26.1393095 L686.547279,17.9156099 C687.392046,17.3955395 687.955283,16.4623599 687.955283,15.3974291 L682.044683,15.3974291 C682.044683,16.4623599 682.607919,17.3955395 683.452687,17.9156099 L683.452687,26.1393095 C682.607919,26.6595533 682.044683,27.5927329 682.044683,28.6574903 L687.955283,28.6574903 C687.955283,27.5927329 687.392046,26.6595533 686.547279,26.1393095 M701.912221,31.2035642 L668.087883,31.2035642 C667.999645,31.2035642 667.927355,31.1312744 667.927355,31.0430358 L667.927355,29.4973866 C667.927355,29.409148 667.999645,29.3370316 668.087883,29.3370316 L701.912221,29.3370316 C702.000459,29.3370316 702.072576,29.409148 702.072576,29.4973866 L702.072576,31.0430358 C702.072576,31.1312744 702.000459,31.2035642 701.912221,31.2035642 M704.839645,33.618355 L665.160355,33.618355 C665.072116,33.618355 665,33.5462386 665,33.458 L665,31.9121774 C665,31.8241122 665.072116,31.7518224 665.160355,31.7518224 L704.839645,31.7518224 C704.927884,31.7518224 705,31.8241122 705,31.9121774 L705,33.458 C705,33.5462386 704.927884,33.618355 704.839645,33.618355 M685.000017,8.56611395 C683.751502,8.56611395 682.739271,7.55405698 682.739271,6.30554135 C682.739271,5.05702572 683.751502,4.0447954 685.000017,4.0447954 C686.248533,4.0447954 687.260763,5.05702572 687.260763,6.30554135 C687.260763,7.55405698 686.248533,8.56611395 685.000017,8.56611395 M701.271113,11.396337 L685.913954,1.27420711 C685.359559,0.90859763 684.640475,0.90859763 684.085907,1.27420711 L668.728922,11.396337 C667.353162,12.3031664 667.995103,14.4439494 669.643032,14.4439494 L700.357002,14.4439494 C702.004759,14.4439494 702.646872,12.3031664 701.271113,11.396337" transform="translate(-665 -1)"/>
</svg>
