<svg xmlns="http://www.w3.org/2000/svg" width="40" height="32" viewBox="0 0 40 32">
  <path fill="#00AEF9" fill-rule="evenodd" d="M279.785882,21.0023529 C279.785882,21.0023529 279.8,21.0023529 279.821176,21.0023529 L279.844706,21.0023529 L279.915294,21.0023529 L279.929412,21.0023529 L279.976471,21.0023529 C280.002353,21.0023529 280.030588,21.0023529 280.056471,21.0023529 C280.971765,19.72 282.390588,18.8423529 284.025882,18.6282353 C283.409412,17.9317647 282.788235,16.6329412 283.030588,14.1858824 C283.058824,13.9105882 283.08,13.6376471 283.096471,13.3670588 C283.101176,13.28 283.101176,13.1929412 283.105882,13.1058824 C283.115294,12.9247059 283.124706,12.7435294 283.127059,12.5670588 C283.129412,12.4635294 283.124706,12.3647059 283.124706,12.2635294 C283.124706,12.1035294 283.127059,11.9435294 283.122353,11.7882353 C283.117647,11.68 283.110588,11.5764706 283.103529,11.4682353 C283.096471,11.3247059 283.089412,11.1788235 283.077647,11.0376471 C283.070588,10.9294118 283.056471,10.8258824 283.044706,10.72 C283.030588,10.5858824 283.016471,10.4517647 282.997647,10.32 C282.981176,10.2164706 282.964706,10.1152941 282.945882,10.0141176 C282.922353,9.88705882 282.901176,9.76235294 282.875294,9.64235294 C282.854118,9.54117647 282.828235,9.44470588 282.802353,9.34823529 C282.776471,9.23294118 282.745882,9.11764706 282.710588,9.00705882 C282.682353,8.91294118 282.651765,8.82117647 282.618824,8.73176471 C282.581176,8.62588235 282.545882,8.52 282.503529,8.41882353 C282.470588,8.33176471 282.430588,8.24941176 282.390588,8.16470588 C282.345882,8.07058824 282.298824,7.97411765 282.251765,7.88470588 C282.207059,7.80705882 282.162353,7.73176471 282.115294,7.65647059 C282.063529,7.57176471 282.007059,7.48941176 281.950588,7.40941176 C281.898824,7.34117647 281.847059,7.27529412 281.792941,7.20941176 C281.731765,7.13647059 281.668235,7.06588235 281.6,7 C281.543529,6.93882353 281.482353,6.88470588 281.418824,6.83058824 C281.350588,6.76941176 281.277647,6.71058824 281.204706,6.65647059 C281.136471,6.60941176 281.068235,6.56470588 280.997647,6.52235294 C280.917647,6.47294118 280.835294,6.43058824 280.750588,6.39058824 C280.675294,6.35294118 280.6,6.32 280.52,6.28941176 C280.430588,6.25647059 280.338824,6.22823529 280.244706,6.20235294 C280.162353,6.17882353 280.077647,6.15764706 279.990588,6.14117647 C279.891765,6.12235294 279.788235,6.10823529 279.684706,6.09882353 C279.592941,6.08941176 279.501176,6.08 279.404706,6.07764706 C279.367059,6.07764706 279.334118,6.07058824 279.296471,6.07058824 C279.155294,6.07058824 279.011765,6.07764706 278.863529,6.09176471 C278.863529,6.09176471 278.849412,6.07294118 278.835294,6.05647059 C278.828235,6.05176471 278.821176,6.04470588 278.814118,6.03529412 C278.785882,6.00705882 278.750588,5.96941176 278.696471,5.92235294 C278.694118,5.92 278.689412,5.91764706 278.687059,5.91529412 C278.64,5.87294118 278.578824,5.82117647 278.512941,5.77176471 L278.458824,5.72941176 C278.378824,5.67294118 278.291765,5.61176471 278.190588,5.55058824 C278.181176,5.54588235 278.169412,5.53882353 278.162353,5.53411765 C278.070588,5.47764706 277.964706,5.42352941 277.854118,5.37176471 C277.825882,5.36 277.795294,5.34588235 277.767059,5.33176471 C277.64,5.27529412 277.501176,5.22352941 277.352941,5.17647059 C277.334118,5.17176471 277.310588,5.16705882 277.289412,5.16 C277.155294,5.12235294 277.009412,5.08941176 276.858824,5.06352941 C276.818824,5.05647059 276.778824,5.04941176 276.736471,5.04470588 C276.562353,5.02117647 276.376471,5.00470588 276.181176,5.00235294 C276.169412,5.00235294 276.16,5 276.150588,5 C276.082353,5 276.007059,5.00705882 275.934118,5.01176471 C275.870588,5.01411765 275.807059,5.01411765 275.738824,5.02117647 C275.644706,5.02823529 275.548235,5.04470588 275.449412,5.05882353 C275.385882,5.06823529 275.322353,5.07294118 275.254118,5.08705882 C275.141176,5.10823529 275.028235,5.13647059 274.912941,5.16705882 C274.851765,5.18117647 274.795294,5.19058824 274.734118,5.20941176 C274.552941,5.25882353 274.369412,5.32 274.176471,5.39294118 C273.108235,5.81647059 270.235294,6.82823529 270.381176,13.0611765 C270.524706,19.2941176 268.169412,19.3247059 268.169412,19.3247059 C268.169412,19.3247059 268.183529,19.3411765 268.204706,19.3670588 C268.211765,19.3788235 268.218824,19.3858824 268.230588,19.4 C268.237647,19.4070588 268.251765,19.4211765 268.261176,19.4329412 C268.272941,19.4470588 268.287059,19.4635294 268.308235,19.4847059 C268.324706,19.5035294 268.348235,19.5247059 268.367059,19.5435294 C268.385882,19.5623529 268.4,19.5788235 268.421176,19.5952941 C268.444706,19.6188235 268.472941,19.6423529 268.501176,19.6658824 C268.524706,19.6870588 268.548235,19.7058824 268.571765,19.7270588 C268.602353,19.7529412 268.637647,19.7764706 268.665882,19.8023529 C268.701176,19.8258824 268.729412,19.8494118 268.764706,19.8752941 C268.8,19.9011765 268.844706,19.9270588 268.88,19.9529412 C268.922353,19.9811765 268.955294,20.0070588 269,20.0329412 C269.044706,20.0611765 269.094118,20.0870588 269.141176,20.1152941 C269.185882,20.1411765 269.230588,20.1694118 269.282353,20.1976471 C269.331765,20.2235294 269.388235,20.2494118 269.442353,20.2776471 C269.498824,20.3035294 269.550588,20.3317647 269.611765,20.36 C269.668235,20.3858824 269.734118,20.4117647 269.795294,20.4352941 C269.858824,20.4635294 269.922353,20.4894118 269.990588,20.5152941 C270.054118,20.5411765 270.129412,20.5647059 270.2,20.5882353 C270.272941,20.6117647 270.341176,20.6376471 270.421176,20.6611765 C270.496471,20.6847059 270.578824,20.7058824 270.656471,20.7270588 C270.738824,20.7505882 270.818824,20.7717647 270.908235,20.7929412 C270.992941,20.8117647 271.084706,20.8305882 271.171765,20.8470588 C271.265882,20.8658824 271.355294,20.8870588 271.451765,20.9035294 C271.545882,20.9176471 271.647059,20.9317647 271.743529,20.9458824 C271.847059,20.96 271.948235,20.9764706 272.058824,20.9882353 C272.16,21 272.270588,21.0047059 272.378824,21.0141176 C272.491765,21.0235294 272.604706,21.0352941 272.724706,21.04 C272.837647,21.0470588 272.96,21.0470588 273.075294,21.0494118 C273.183529,21.0517647 273.287059,21.0588235 273.4,21.0588235 C273.44,21.0588235 273.477647,21.0588235 273.517647,21.0564706 L273.517647,22.5952941 C273.517647,22.7223529 273.484706,22.8447059 273.435294,22.9576471 C273.421176,22.9882353 273.409412,23.0211765 273.392941,23.0494118 C273.32,23.1764706 273.218824,23.2870588 273.091765,23.3670588 L273.002353,23.4235294 C271.767059,24.08 269.167059,24.76 269.122353,24.7858824 C268.275294,25.0141176 267.456471,25.32 266.670588,25.7058824 C265.738824,26.1482353 265.105882,27.0447059 265,28.0705882 L265,29.8494118 C265,30.9035294 265.854118,31.7552941 266.905882,31.7552941 L276.618824,31.7552941 L276.689412,31.7552941 L277.628235,31.7552941 L277.628235,29.0635294 C277.628235,27.8658824 278.127059,26.7223529 278.974118,25.8941176 L278.974118,24.3552941 C278.974118,23.2917647 279.282353,22.3058824 279.785882,21.4470588 L279.785882,21.0023529 Z M303.620941,26.1115294 C301.526824,24.4197647 295.879765,20.8997647 295.879765,20.8997647 L295.879765,18.5585882 C296.244471,17.9397647 296.496235,17.2621176 296.616235,16.5538824 C296.898588,16.5303529 297.270353,16.1327059 297.672706,14.7232941 C298.199765,12.8550588 297.679765,12.5256471 297.199765,12.5444706 C298.392706,7.05741176 295.319765,7.05741176 295.319765,7.05741176 C295.060941,5.93035294 293.435059,4.73741176 291.915059,5.05270588 C290.395059,5.37035294 287.265647,5.01270588 287.265647,5.01270588 C287.265647,5.44564706 287.458588,5.85741176 287.788,6.13505882 C285.042118,7.79388235 285.672706,11.488 285.922118,12.5491765 C285.832706,12.5491765 285.748,12.568 285.668,12.6009412 C285.656235,13.2409412 285.618588,13.8597647 285.562118,14.4362353 C285.545647,14.5938824 285.538588,14.7397647 285.533882,14.8832941 C285.470353,16.2103529 285.773882,16.8197647 285.950353,16.9915294 L286.691529,17.2009412 C286.828,17.6762353 287.023294,18.1350588 287.277412,18.5632941 L287.277412,19.1209412 C289.239765,20.0409412 290.578588,22.0056471 290.578588,24.3538824 L290.578588,25.8927059 C291.425647,26.7232941 291.922118,27.8668235 291.922118,29.0644706 L291.922118,31.7609412 L302.644471,31.7609412 C303.696235,31.7609412 304.552706,30.9068235 304.552706,29.8527059 L304.552706,28.1044706 C304.552706,27.3350588 304.213882,26.6032941 303.620941,26.1115294 M285.449882,33.1014118 C285.449882,33.5061176 285.179294,33.7743529 284.776941,33.7743529 C284.372235,33.7743529 284.104,33.5061176 284.104,33.1014118 L284.104,31.7555294 L284.104,31.5767059 C283.701647,31.3437647 283.431059,30.9084706 283.431059,30.4096471 C283.431059,29.6684706 284.031059,29.0637647 284.776941,29.0637647 C285.518118,29.0637647 286.120471,29.6684706 286.120471,30.4096471 C286.120471,30.9084706 285.852235,31.3437647 285.449882,31.5767059 L285.449882,31.7555294 L285.449882,33.1014118 Z M284.776941,21.6637647 C285.228706,21.6637647 285.638118,21.8049412 286.012235,22.0049412 C286.504,22.2684706 286.904,22.6637647 287.155765,23.1625882 C287.341647,23.5272941 287.466353,23.9225882 287.466353,24.3555294 L287.466353,26.3272941 L287.466353,26.3743529 L282.082824,26.3743529 L282.082824,24.3555294 C282.082824,24.2825882 282.120471,24.2237647 282.125176,24.1531765 C282.233412,22.772 283.365176,21.6637647 284.776941,21.6637647 L284.776941,21.6637647 Z M288.814588,26.7484706 L288.814588,24.3555294 C288.814588,24.2661176 288.793412,24.1837647 288.788706,24.0967059 C288.706353,22.8072941 288.047529,21.6755294 287.031059,20.9931765 C286.609882,20.7131765 286.129882,20.5061176 285.605176,20.4002353 C285.339294,20.3461176 285.061647,20.3178824 284.776941,20.3178824 C283.941647,20.3178824 283.167529,20.572 282.522824,21.0096471 C281.635765,21.6096471 281.005176,22.5578824 280.809882,23.6472941 C280.769882,23.8802353 280.739294,24.1131765 280.739294,24.3555294 L280.739294,26.7484706 C280.139294,27.1014118 279.682824,27.6708235 279.492235,28.3508235 C279.426353,28.5790588 279.393412,28.8167059 279.393412,29.0637647 L279.393412,31.7555294 L279.393412,33.7743529 C279.393412,35.2567059 280.602824,36.4661176 282.082824,36.4661176 L287.466353,36.4661176 C288.946353,36.4661176 290.158118,35.2567059 290.158118,33.7743529 L290.158118,29.0637647 C290.158118,28.5696471 290.021647,28.1084706 289.786353,27.7108235 C289.548706,27.3155294 289.214588,26.9837647 288.814588,26.7484706 L288.814588,26.7484706 Z" transform="translate(-265 -5)"/>
</svg>
