<svg xmlns="http://www.w3.org/2000/svg" width="33" height="33" viewBox="0 0 33 33">
  <path fill="#00AEF9" fill-rule="evenodd" d="M676.540873,11.2905074 C676.540873,10.5895306 677.10424,10.0212766 677.810104,10.0212766 L679.079335,10.0212766 L679.079335,12.5597381 L676.540873,12.5597381 L676.540873,11.2905074 Z M680.771643,10.0212766 L683.310104,10.0212766 L683.310104,12.5597381 L680.771643,12.5597381 L680.771643,10.0212766 Z M685.002412,10.0212766 L686.271643,10.0212766 C686.972619,10.0212766 687.540873,10.5846435 687.540873,11.2905074 L687.540873,12.5597381 L685.002412,12.5597381 L685.002412,10.0212766 Z M676.540873,14.2520458 L679.079335,14.2520458 L679.079335,16.7905074 L676.540873,16.7905074 L676.540873,14.2520458 Z M680.771643,14.2520458 L683.310104,14.2520458 L683.310104,16.7905074 L680.771643,16.7905074 L680.771643,14.2520458 Z M685.002412,14.2520458 L687.540873,14.2520458 L687.540873,16.7905074 L685.002412,16.7905074 L685.002412,14.2520458 Z M676.540873,18.4828151 L679.079335,18.4828151 L679.079335,21.0212766 L677.810104,21.0212766 C677.109127,21.0212766 676.540873,20.4579097 676.540873,19.7520458 L676.540873,18.4828151 Z M680.771643,18.4828151 L683.310104,18.4828151 L683.310104,21.0212766 L680.771643,21.0212766 L680.771643,18.4828151 Z M685.002412,18.4828151 L687.540873,18.4828151 L687.540873,19.7520458 C687.540873,20.4530226 686.977507,21.0212766 686.271643,21.0212766 L685.002412,21.0212766 L685.002412,18.4828151 Z M667.950209,4.75092717 C667.498814,3.06629737 668.498548,1.33470698 670.183178,0.883311787 C671.867807,0.431916592 673.599398,1.43165077 674.050793,3.11628057 C674.502188,4.80091037 673.502454,6.53250076 671.817824,6.98389595 C670.133194,7.43529115 668.401604,6.43555697 667.950209,4.75092717 Z M674.068261,30.0313359 C673.616866,28.3467061 674.6166,26.6151157 676.30123,26.1637205 C677.98586,25.7123253 679.71745,26.7120595 680.168845,28.3966893 C680.620241,30.0813191 679.620506,31.8129095 677.935877,32.2643047 C676.251247,32.7156999 674.519656,31.7159657 674.068261,30.0313359 Z M693.153056,11.6098945 C692.701661,9.92526471 693.701045,8.19376814 695.385242,7.74248867 C697.06944,7.29120919 698.800681,8.29103718 699.252076,9.97566698 C699.703471,11.6602968 698.704087,13.3917934 697.019889,13.8430728 C695.335691,14.2943523 693.604451,13.2945243 693.153056,11.6098945 Z" transform="translate(-667)"/>
</svg>
