<svg xmlns="http://www.w3.org/2000/svg" width="40" height="36" viewBox="0 0 40 36">
  <path fill="#00AEF9" fill-rule="evenodd" d="M96.6666667,37 L73.3333333,37 C68.6666667,37 65,33.3333333 65,28.6666667 L65,9.33333333 C65,4.66666667 68.6666667,1 73.3333333,1 L96.6666667,1 C101.333333,1 105,4.66666667 105,9.33333333 L105,28.6666667 C105,33.3333333 101.333333,37 96.6666667,37 Z M77.6666667,16 L73.8333333,12.1666667 C73.1666667,11.5 73.1666667,10.5 73.8333333,9.83333333 C74.5,9.16666667 75.5,9.16666667 76.1666667,9.83333333 L81.1666667,14.8333333 C81.5,15.1666667 81.6666667,15.5833333 81.6666667,16 C81.6666667,16.4166667 81.5,16.8333333 81.1666667,17.1666667 L76.1666667,22.1666667 C75.8333333,22.5 75.5,22.6666667 75,22.6666667 C74.5,22.6666667 74.1666667,22.5 73.8333333,22.1666667 C73.1666667,21.5 73.1666667,20.5 73.8333333,19.8333333 L77.6666667,16 Z M90,22.6666667 L83.3333333,22.6666667 C82.3333333,22.6666667 81.6666667,22 81.6666667,21 C81.6666667,20 82.3333333,19.3333333 83.3333333,19.3333333 L90,19.3333333 C91,19.3333333 91.6666667,20 91.6666667,21 C91.6666667,22 91,22.6666667 90,22.6666667 Z" transform="translate(-65 -1)"/>
</svg>
