<?xml version="1.0" encoding="UTF-8" standalone="no"?>
<svg width="48px" height="40px" viewBox="0 0 48 40" version="1.1" xmlns="http://www.w3.org/2000/svg" xmlns:xlink="http://www.w3.org/1999/xlink">
    <!-- Generator: Sketch 39.1 (31720) - http://www.bohemiancoding.com/sketch -->
    <title>icon</title>
    <desc>Created with Sketch.</desc>
    <defs></defs>
    <g id="About-/-Contact-/-Careers" stroke="none" stroke-width="1" fill="none" fill-rule="evenodd">
        <g id="Contact" transform="translate(-292.000000, -450.000000)" fill="#00AEF9">
            <g id="content" transform="translate(0.000000, 380.000000)">
                <g id="block" transform="translate(237.000000, 70.000000)">
                    <g id="icon" transform="translate(55.000000, 0.000000)">
                        <ellipse id="Circle" opacity="0.200000003" cx="15" cy="25" rx="15" ry="15"></ellipse>
                        <path d="M45.5794283,1.7910666 C45.6605746,1.7910666 45.7314862,1.82250164 45.7928942,1.8663645 L28.6140069,15.4368009 L10.9643249,1.85832298 C11.0228087,1.81957745 11.089334,1.7910666 11.1646319,1.7910666 L45.5794283,1.7910666 Z M34.4894364,13.0769793 L45.9537247,4.0214928 L45.9537247,26.0925506 L34.4894364,13.0769793 Z M23.9243366,14.0887492 L28.0744937,17.281234 C28.2353242,17.4055121 28.4283208,17.4669201 28.6213173,17.4669201 C28.8165071,17.4669201 29.0124278,17.4025879 29.1754514,17.2746546 L33.0821697,14.1881716 L45.4310257,28.2089334 L11.489217,28.2089334 L23.9243366,14.0887492 Z M10.7917976,3.98494042 L22.5009869,12.9936399 L10.7917976,26.2892024 L10.7917976,3.98494042 Z M45.5794283,0 L11.1646319,0 C9.9708312,0 9,0.971562249 9,2.16536297 L9,27.834637 C9,28.1986987 9.09869142,28.5357117 9.25732875,28.8376343 C9.26317713,28.8507932 9.27121866,28.8617589 9.27779808,28.8749178 C9.64697712,29.5416332 10.3495139,30 11.1646319,30 L45.5794283,30 C46.773229,30 47.7440602,29.0291688 47.7440602,27.834637 L47.7440602,2.16536297 C47.7440602,0.971562249 46.773229,0 45.5794283,0 L45.5794283,0 Z" id="icons/envelope"></path>
                    </g>
                </g>
            </g>
        </g>
    </g>
</svg>