<?xml version="1.0" encoding="UTF-8" standalone="no"?>
<svg width="40px" height="42px" viewBox="0 0 40 42" version="1.1" xmlns="http://www.w3.org/2000/svg" xmlns:xlink="http://www.w3.org/1999/xlink">
    <!-- Generator: Sketch 39.1 (31720) - http://www.bohemiancoding.com/sketch -->
    <title>icon</title>
    <desc>Created with Sketch.</desc>
    <defs></defs>
    <g id="About-/-Contact-/-Careers" stroke="none" stroke-width="1" fill="none" fill-rule="evenodd">
        <g id="Contact" transform="translate(-624.000000, -439.000000)">
            <g id="content" transform="translate(0.000000, 380.000000)">
                <g id="block" transform="translate(583.000000, 60.000000)">
                    <g id="icon" transform="translate(42.000000, 0.000000)">
                        <ellipse id="Circle" fill="#00AEF9" opacity="0.200000003" cx="23.1904762" cy="24.1428571" rx="15" ry="15"></ellipse>
                        <path d="M15.1454545,8.30744615 C11.2255636,8.30744615 8.03636364,11.4822154 8.03636364,15.3843692 C8.03636364,19.2865231 11.2255636,22.4612923 15.1454545,22.4612923 C19.0653455,22.4612923 22.2545455,19.2865231 22.2545455,15.3843692 C22.2545455,11.4822154 19.0653455,8.30744615 15.1454545,8.30744615 M15.4545455,0 C6.91930909,0 0,6.888 0,15.3846154 C0,23.8812308 12.7367091,40 15.4545455,40 C18.1723818,40 30.9090909,23.8812308 30.9090909,15.3846154 C30.9090909,6.888 23.9897818,0 15.4545455,0" id="PIN" stroke="#00AEF9" stroke-width="2"></path>
                    </g>
                </g>
            </g>
        </g>
    </g>
</svg>