<svg xmlns="http://www.w3.org/2000/svg" width="44" height="44" viewBox="0 0 44 44">
  <g fill="#BCCFE1" fill-rule="evenodd">
    <path d="M18.8299784,12.283373 L21.5770054,13.4428324 L24.3228432,12.283373 L21.5770054,5.77850811 L18.8299784,12.283373 Z M18.3067351,13.5260757 L17.6396,15.1053189 L19.8431676,14.175373 L18.3067351,13.5260757 Z M23.3108432,14.175373 L25.5144108,15.1053189 L24.8472757,13.5260757 L23.3108432,14.175373 Z M10.0335459,10.0322378 L13.0017622,17.0639135 L15.8570054,15.8568865 L17.0640324,13.0016432 L10.0335459,10.0322378 Z M27.2958162,15.8568865 L30.1522486,17.0639135 L33.1216541,10.0322378 L26.0887892,13.0016432 L27.2958162,15.8568865 Z M13.5250054,18.305427 L14.1754919,19.8418595 L15.1054378,17.6394811 L13.5250054,18.305427 Z M28.048573,17.6394811 L28.9785189,19.8418595 L29.6278162,18.305427 L28.048573,17.6394811 Z M5.77862703,21.5756973 L12.2834919,24.3227243 L13.4429514,21.5756973 L12.2834919,18.8298595 L5.77862703,21.5756973 Z M29.7098703,21.5756973 L30.8705189,24.3227243 L37.3741946,21.5756973 L30.8705189,18.8298595 L29.7098703,21.5756973 Z M13.5250054,24.8471568 L15.1054378,25.5142919 L14.1754919,23.3095351 L13.5250054,24.8471568 Z M28.9785189,23.3095351 L28.048573,25.5142919 L29.6278162,24.8471568 L28.9785189,23.3095351 Z M16.8868432,26.2670486 L21.5770054,28.2470486 L26.2659784,26.2670486 L28.2471676,21.5756973 L26.2659784,16.8867243 L21.5770054,14.9067243 L16.8868432,16.8867243 L14.9056541,21.5756973 L16.8868432,26.2670486 Z M17.6396,28.0484541 L18.3067351,29.6276973 L19.8431676,28.9784 L17.6396,28.0484541 Z M23.3108432,28.9784 L24.8472757,29.6276973 L25.5144108,28.0484541 L23.3108432,28.9784 Z M13.0017622,26.0898595 L10.0335459,33.1203459 L17.0640324,30.1521297 L15.8570054,27.2956973 L13.0017622,26.0898595 Z M26.0887892,30.1521297 L33.1216541,33.1203459 L30.1522486,26.0898595 L27.2958162,27.2956973 L26.0887892,30.1521297 Z M18.8299784,30.8704 L21.5770054,37.3740757 L24.3228432,30.8704 L21.5770054,29.7109405 L18.8299784,30.8704 Z M21.5770054,39.7821838 C21.3058703,39.7821838 21.0608973,39.6192649 20.9550595,39.3695351 L17.5884649,31.3936432 L9.02749189,35.0087784 C8.77538378,35.1169946 8.48284324,35.0575351 8.28900541,34.8636973 C8.09516757,34.6698595 8.03808649,34.3785081 8.14511351,34.1252108 L11.7590595,25.565427 L3.78435676,22.1976432 C3.53343784,22.0918054 3.37170811,21.8480216 3.37170811,21.5756973 C3.37170811,21.3057514 3.53343784,21.0607784 3.78435676,20.9561297 L11.7590595,17.5883459 L8.14511351,9.02737297 C8.03808649,8.77526486 8.09516757,8.48391351 8.28900541,8.28888649 C8.48284324,8.09504865 8.77657297,8.03677838 9.02749189,8.14499459 L17.5884649,11.7589405 L20.9550595,3.78423784 C21.0608973,3.53331892 21.3058703,3.37158919 21.5770054,3.37158919 C21.8481405,3.37158919 22.0919243,3.53331892 22.1977622,3.78423784 L25.5643568,11.7589405 L34.1253297,8.14499459 C34.3774378,8.03677838 34.6699784,8.09504865 34.8638162,8.28888649 C35.0576541,8.48391351 35.1147351,8.77526486 35.0077081,9.02737297 L31.3937622,17.5883459 L39.3696541,20.9561297 C39.6193838,21.0607784 39.7823027,21.3057514 39.7823027,21.5756973 C39.7823027,21.8480216 39.6193838,22.0918054 39.3696541,22.1976432 L31.3937622,25.565427 L34.9601405,34.0110486 C35.0326811,34.1192649 35.0754919,34.2488865 35.0754919,34.3880216 C35.0754919,34.7602378 34.7734378,35.0622919 34.4012216,35.0622919 L34.3881405,35.0622919 C34.3001405,35.0622919 34.2109514,35.0456432 34.1253297,35.0087784 L25.5643568,31.3936432 L22.1977622,39.3695351 C22.0919243,39.6192649 21.8481405,39.7821838 21.5770054,39.7821838 L21.5770054,39.7821838 Z"/>
    <path d="M21.5764108 1.34842162C20.0887351 1.34842162 18.8793297 2.55901622 18.8793297 4.04669189 18.8793297 5.53317838 20.0887351 6.74258378 21.5764108 6.74258378 23.0640865 6.74258378 24.2746811 5.53317838 24.2746811 4.04669189 24.2746811 2.55901622 23.0640865 1.34842162 21.5764108 1.34842162M21.5764108 8.09112432C19.3454919 8.09112432 17.5319784 6.27761081 17.5319784 4.04669189 17.5319784 1.81577297 19.3454919-.000118918919 21.5764108-.000118918919 23.8073297-.000118918919 25.6220324 1.81577297 25.6220324 4.04669189 25.6220324 6.27761081 23.8073297 8.09112432 21.5764108 8.09112432M34.3881405 6.06795676C32.9004649 6.06795676 31.6898703 7.27855135 31.6898703 8.76622703 31.6898703 10.2539027 32.9004649 11.4621189 34.3881405 11.4621189 35.8758162 11.4621189 37.0852216 10.2539027 37.0852216 8.76622703 37.0852216 7.27855135 35.8758162 6.06795676 34.3881405 6.06795676M34.3881405 12.8106595C32.1572216 12.8106595 30.3425189 10.9971459 30.3425189 8.76622703 30.3425189 6.53530811 32.1572216 4.71941622 34.3881405 4.71941622 36.6190595 4.71941622 38.432573 6.53530811 38.432573 8.76622703 38.432573 10.9971459 36.6190595 12.8106595 34.3881405 12.8106595M39.1076757 18.8796865C37.62 18.8796865 36.4105946 20.0890919 36.4105946 21.5767676 36.4105946 23.0644432 37.62 24.2738486 39.1076757 24.2738486 40.5953514 24.2738486 41.8047568 23.0644432 41.8047568 21.5767676 41.8047568 20.0890919 40.5953514 18.8796865 39.1076757 18.8796865M39.1076757 25.6223892C36.8767568 25.6223892 35.0620541 23.8076865 35.0620541 21.5767676 35.0620541 19.3458486 36.8767568 17.5311459 39.1076757 17.5311459 41.3385946 17.5311459 43.1532973 19.3458486 43.1532973 21.5767676 43.1532973 23.8076865 41.3385946 25.6223892 39.1076757 25.6223892M34.3881405 31.6901081C32.9004649 31.6901081 31.6898703 32.9007027 31.6898703 34.3883784 31.6898703 35.8760541 32.9004649 37.0842703 34.3881405 37.0842703 35.8758162 37.0842703 37.0852216 35.8760541 37.0852216 34.3883784 37.0852216 32.9007027 35.8758162 31.6901081 34.3881405 31.6901081M34.3881405 38.434C32.1572216 38.434 30.3425189 36.6192973 30.3425189 34.3883784 30.3425189 32.1574595 32.1572216 30.3415676 34.3881405 30.3415676 36.6190595 30.3415676 38.432573 32.1574595 38.432573 34.3883784 38.432573 36.6192973 36.6190595 38.434 34.3881405 38.434M8.76598919 6.06795676C7.27831351 6.06795676 6.06771892 7.27855135 6.06771892 8.76622703 6.06771892 10.2539027 7.27831351 11.4621189 8.76598919 11.4621189 10.2524757 11.4621189 11.4630703 10.2539027 11.4630703 8.76622703 11.4630703 7.27855135 10.2524757 6.06795676 8.76598919 6.06795676M8.76598919 12.8106595C6.53507027 12.8106595 4.72036757 10.9971459 4.72036757 8.76622703 4.72036757 6.53530811 6.53507027 4.71941622 8.76598919 4.71941622 10.9969081 4.71941622 12.8104216 6.53530811 12.8104216 8.76622703 12.8104216 10.9971459 10.9969081 12.8106595 8.76598919 12.8106595M4.04514595 18.8796865C2.55747027 18.8796865 1.34806486 20.0890919 1.34806486 21.5767676 1.34806486 23.0644432 2.55747027 24.2738486 4.04514595 24.2738486 5.53282162 24.2738486 6.74341622 23.0644432 6.74341622 21.5767676 6.74341622 20.0890919 5.53282162 18.8796865 4.04514595 18.8796865M4.04514595 25.6223892C1.81422703 25.6223892.000713513514 23.8076865.000713513514 21.5767676.000713513514 19.3458486 1.81422703 17.5311459 4.04514595 17.5311459 6.27606486 17.5311459 8.09076757 19.3458486 8.09076757 21.5767676 8.09076757 23.8076865 6.27606486 25.6223892 4.04514595 25.6223892M8.76598919 31.6901081C7.27831351 31.6901081 6.06771892 32.9007027 6.06771892 34.3883784 6.06771892 35.8760541 7.27831351 37.0842703 8.76598919 37.0842703 10.2524757 37.0842703 11.4630703 35.8760541 11.4630703 34.3883784 11.4630703 32.9007027 10.2524757 31.6901081 8.76598919 31.6901081M8.76598919 38.434C6.53507027 38.434 4.72036757 36.6192973 4.72036757 34.3883784 4.72036757 32.1574595 6.53507027 30.3415676 8.76598919 30.3415676 10.9969081 30.3415676 12.8104216 32.1574595 12.8104216 34.3883784 12.8104216 36.6192973 10.9969081 38.434 8.76598919 38.434M21.5764108 36.4109514C20.0887351 36.4109514 18.8793297 37.6203568 18.8793297 39.1080324 18.8793297 40.5957081 20.0887351 41.8051135 21.5764108 41.8051135 23.0640865 41.8051135 24.2746811 40.5957081 24.2746811 39.1080324 24.2746811 37.6203568 23.0640865 36.4109514 21.5764108 36.4109514M21.5764108 43.1536541C19.3454919 43.1536541 17.5319784 41.3389514 17.5319784 39.1080324 17.5319784 36.8771135 19.3454919 35.0624108 21.5764108 35.0624108 23.8073297 35.0624108 25.6220324 36.8771135 25.6220324 39.1080324 25.6220324 41.3389514 23.8073297 43.1536541 21.5764108 43.1536541"/>
    <polygon points="19.553 19.554 20.902 19.554 20.902 18.204 19.553 18.204"/>
    <polygon points="22.251 19.554 23.599 19.554 23.599 18.204 22.251 18.204"/>
    <polygon points="23.599 22.251 24.948 22.251 24.948 20.902 23.599 20.902"/>
    <polygon points="20.902 22.251 22.251 22.251 22.251 20.902 20.902 20.902"/>
    <polygon points="18.205 22.251 19.554 22.251 19.554 20.902 18.205 20.902"/>
    <polygon points="22.251 24.948 23.599 24.948 23.599 23.599 22.251 23.599"/>
    <polygon points="19.553 24.948 20.902 24.948 20.902 23.599 19.553 23.599"/>
  </g>
</svg>
