<svg xmlns="http://www.w3.org/2000/svg" width="43" height="44" viewBox="0 0 43 44">
  <g fill="#BCCFE1" fill-rule="evenodd">
    <polygon points="14.751 41.189 42.242 41.189 42.242 39.831 14.751 39.831"/>
    <path d="M39.5603507,43.9060109 C39.3876982,43.9060109 39.2162284,43.8389328 39.0861477,43.7059746 C38.8236214,43.4412559 38.8236214,43.0112377 39.0861477,42.7465191 L41.7681734,40.0298584 C42.0295171,39.7639419 42.4540529,39.7639419 42.7165792,40.0298584 C42.977923,40.2945771 42.977923,40.7245953 42.7165792,40.9905118 L40.0333711,43.7059746 C39.9032905,43.8389328 39.7318206,43.9060109 39.5603507,43.9060109"/>
    <path d="M42.2419033,41.1892305 C42.0692508,41.1892305 41.8989635,41.1221525 41.7688829,40.990392 L39.0856747,38.2737314 C38.8231484,38.0078149 38.8231484,37.5777967 39.0856747,37.313078 C39.348201,37.0471615 39.7715543,37.0471615 40.0340806,37.313078 L42.7161062,40.0297387 C42.97745,40.2944574 42.97745,40.7244755 42.7161062,40.990392 C42.5848431,41.1221525 42.4145557,41.1892305 42.2419033,41.1892305"/>
    <polygon points="2.682 28.964 4.023 28.964 4.023 1.118 2.682 1.118"/>
    <path d="M0.670151636,4.5140726 C0.498681745,4.5140726 0.327211854,4.44819238 0.197131247,4.31523412 C-0.0653950688,4.0493176 -0.0653950688,3.62049728 0.197131247,3.35458076 L2.8779743,0.637920145 C3.14050062,0.37200363 3.56385386,0.37200363 3.82638018,0.637920145 C4.0889065,0.903836661 4.0889065,1.33265699 3.82638018,1.5985735 L1.14435458,4.31523412 C1.01309142,4.44819238 0.842804078,4.5140726 0.670151636,4.5140726"/>
    <path d="M6.0343211,4.5140726 C5.86285121,4.5140726 5.69138132,4.44819238 5.56130071,4.31523412 L2.87809256,1.5985735 C2.61556624,1.33265699 2.61556624,0.903836661 2.87809256,0.637920145 C3.14061887,0.37200363 3.56397212,0.37200363 3.82649844,0.637920145 L6.50852404,3.35458076 C6.77105036,3.62049728 6.77105036,4.0493176 6.50852404,4.31523412 C6.37726088,4.44819238 6.20697354,4.5140726 6.0343211,4.5140726"/>
    <polygon points="5.364 24.889 6.705 24.889 6.705 23.531 5.364 23.531"/>
    <polygon points="8.046 24.889 9.387 24.889 9.387 23.531 8.046 23.531"/>
    <polygon points="10.727 24.889 12.069 24.889 12.069 23.531 10.727 23.531"/>
    <polygon points="13.41 24.889 14.751 24.889 14.751 23.531 13.41 23.531"/>
    <polygon points="5.364 8.589 6.705 8.589 6.705 7.231 5.364 7.231"/>
    <polygon points="8.046 8.589 9.387 8.589 9.387 7.231 8.046 7.231"/>
    <polygon points="10.727 8.589 12.069 8.589 12.069 7.231 10.727 7.231"/>
    <polygon points="13.41 8.589 14.751 8.589 14.751 7.231 13.41 7.231"/>
    <polygon points="16.091 8.589 17.433 8.589 17.433 7.231 16.091 7.231"/>
    <polygon points="18.774 8.589 20.115 8.589 20.115 7.231 18.774 7.231"/>
    <polygon points="21.456 8.589 22.797 8.589 22.797 7.231 21.456 7.231"/>
    <polygon points="24.138 8.589 25.479 8.589 25.479 7.231 24.138 7.231"/>
    <polygon points="5.364 16.739 6.705 16.739 6.705 15.381 5.364 15.381"/>
    <polygon points="8.046 16.739 9.387 16.739 9.387 15.381 8.046 15.381"/>
    <polygon points="10.727 16.739 12.069 16.739 12.069 15.381 10.727 15.381"/>
    <polygon points="13.41 16.739 14.751 16.739 14.751 15.381 13.41 15.381"/>
    <polygon points="16.091 16.739 17.433 16.739 17.433 15.381 16.091 15.381"/>
    <polygon points="18.774 16.739 20.115 16.739 20.115 15.381 18.774 15.381"/>
    <polygon points="21.456 16.739 22.797 16.739 22.797 15.381 21.456 15.381"/>
    <polygon points="26.82 8.589 28.161 8.589 28.161 7.231 26.82 7.231"/>
    <polygon points="29.501 8.589 30.843 8.589 30.843 7.231 29.501 7.231"/>
    <polygon points="18.774 30.322 20.115 30.322 20.115 28.964 18.774 28.964"/>
    <polygon points="18.774 33.039 20.115 33.039 20.115 31.681 18.774 31.681"/>
    <polygon points="18.774 35.756 20.115 35.756 20.115 34.397 18.774 34.397"/>
    <polygon points="18.774 38.472 20.115 38.472 20.115 37.114 18.774 37.114"/>
    <polygon points="26.82 27.606 28.161 27.606 28.161 26.247 26.82 26.247"/>
    <polygon points="26.82 30.322 28.161 30.322 28.161 28.964 26.82 28.964"/>
    <polygon points="26.82 22.172 28.161 22.172 28.161 20.814 26.82 20.814"/>
    <polygon points="26.82 24.889 28.161 24.889 28.161 23.531 26.82 23.531"/>
    <polygon points="26.82 33.039 28.161 33.039 28.161 31.681 26.82 31.681"/>
    <polygon points="26.82 35.756 28.161 35.756 28.161 34.397 26.82 34.397"/>
    <polygon points="26.82 38.472 28.161 38.472 28.161 37.114 26.82 37.114"/>
    <polygon points="34.865 22.172 36.207 22.172 36.207 20.814 34.865 20.814"/>
    <polygon points="34.865 24.889 36.207 24.889 36.207 23.531 34.865 23.531"/>
    <polygon points="34.865 27.606 36.207 27.606 36.207 26.247 34.865 26.247"/>
    <polygon points="34.865 30.322 36.207 30.322 36.207 28.964 34.865 28.964"/>
    <polygon points="34.865 33.039 36.207 33.039 36.207 31.681 34.865 31.681"/>
    <polygon points="34.865 35.756 36.207 35.756 36.207 34.397 34.865 34.397"/>
    <polygon points="34.865 14.023 36.207 14.023 36.207 12.664 34.865 12.664"/>
    <polygon points="34.865 16.739 36.207 16.739 36.207 15.381 34.865 15.381"/>
    <polygon points="34.865 19.456 36.207 19.456 36.207 18.097 34.865 18.097"/>
    <polygon points="34.865 38.472 36.207 38.472 36.207 37.114 34.865 37.114"/>
    <polygon points="20.115 27.606 18.774 27.606 18.774 24.889 16.092 24.889 16.092 23.531 20.115 23.531"/>
    <polygon points="28.161 19.456 26.82 19.456 26.82 16.739 24.139 16.739 24.139 15.381 28.161 15.381"/>
    <polygon points="36.208 11.306 34.866 11.306 34.866 8.589 32.185 8.589 32.185 7.231 36.208 7.231"/>
    <path d="M8.04607681,31.6809183 C5.82761119,31.6809183 4.02303841,33.5087949 4.02303841,35.7559093 C4.02303841,38.0030236 5.82761119,39.8309002 8.04607681,39.8309002 C10.2645424,39.8309002 12.0691152,38.0030236 12.0691152,35.7559093 C12.0691152,33.5087949 10.2645424,31.6809183 8.04607681,31.6809183 M8.04607681,41.1892305 C5.08851683,41.1892305 2.6820256,38.7516624 2.6820256,35.7559093 C2.6820256,32.7601561 5.08851683,30.322588 8.04607681,30.322588 C11.0036368,30.322588 13.410128,32.7601561 13.410128,35.7559093 C13.410128,38.7516624 11.0036368,41.1892305 8.04607681,41.1892305"/>
  </g>
</svg>
