<svg xmlns="http://www.w3.org/2000/svg" width="42" height="44" viewBox="0 0 42 44">
  <g fill="#BCCFE1" fill-rule="evenodd">
    <path d="M16.6218107,1.37127623 C7.18138929,1.37127623 1.38448929,3.76698855 1.38448929,5.4854677 C1.38448929,7.20394686 7.18138929,9.59965918 16.6218107,9.59965918 C26.0622321,9.59965918 31.8579107,7.20394686 31.8579107,5.4854677 C31.8579107,3.76698855 26.0622321,1.37127623 16.6218107,1.37127623 M16.6218107,10.9710563 C8.562825,10.9710563 0.000610714286,9.04940724 0.000610714286,5.4854677 C0.000610714286,1.92273752 8.562825,-0.000120934494 16.6218107,-0.000120934494 C24.679575,-0.000120934494 33.2417893,1.92273752 33.2417893,5.4854677 C33.2417893,9.04940724 24.679575,10.9710563 16.6218107,10.9710563"/>
    <path d="M16.6218107,19.1996812 C8.562825,19.1996812 0.000610714286,17.2768227 0.000610714286,13.7140925 L0.000610714286,5.48570957 L1.38448929,5.48570957 L1.38448929,13.7140925 C1.38448929,15.4313623 7.18138929,17.828284 16.6218107,17.828284 L16.6218107,19.1996812 Z"/>
    <polygon points="31.857 12.343 33.242 12.343 33.242 5.486 31.857 5.486"/>
    <path d="M16.6218107 27.4277013C8.562825 27.4277013.000610714286 25.5060522.000610714286 21.9421127L.000610714286 17.1422226 1.38448929 17.1422226 1.38448929 21.9421127C1.38448929 23.6605918 7.18138929 26.0563042 16.6218107 26.0563042L16.6218107 27.4277013zM16.6218107 35.6563262C8.562825 35.6563262.000610714286 33.7334677.000610714286 30.1707375L.000610714286 25.3708475 1.38448929 25.3708475 1.38448929 30.1707375C1.38448929 31.8892167 7.18138929 34.284929 16.6218107 34.284929L16.6218107 35.6563262z"/>
    <path d="M16.6218107,43.884951 C8.562825,43.884951 0.000610714286,41.9620925 0.000610714286,38.3993623 L0.000610714286,33.5994723 L1.38448929,33.5994723 L1.38448929,38.3993623 C1.38448929,40.1166322 7.18138929,42.5135538 16.6218107,42.5135538 C19.5214821,42.5135538 22.3515321,42.2728942 24.8041607,41.8205992 L25.0582179,43.1690188 C22.5237536,43.6370353 19.6057607,43.884951 16.6218107,43.884951"/>
    <polygon points="16.621 19.2 18.006 19.2 18.006 17.828 16.621 17.828"/>
    <polygon points="16.621 27.428 18.006 27.428 18.006 26.057 16.621 26.057"/>
    <polygon points="16.621 35.656 18.006 35.656 18.006 34.285 16.621 34.285"/>
    <path d="M20.7762557,34.641202 L30.4719557,42.3205424 L40.1676557,34.641202 L40.1676557,15.3896399 L35.56287,17.0984443 C35.3088129,17.1915639 35.0217771,17.1310967 34.8300129,16.9412295 L32.9563414,15.0860944 L27.9887914,15.0860944 L26.1138986,16.9412295 C25.9221343,17.1310967 25.63632,17.1915639 25.3810414,17.0984443 L20.7762557,15.3896399 L20.7762557,34.641202 Z M30.4719557,43.8854347 C30.3192771,43.8854347 30.1653771,43.8346422 30.03957,43.7342666 L19.65132,35.5058836 C19.4864271,35.3752744 19.3911557,35.1781512 19.3911557,34.9701438 L19.3911557,14.3991864 C19.3911557,14.1742483 19.5023057,13.9638223 19.6891843,13.8356317 C19.8748414,13.7074411 20.1142414,13.6796262 20.3279914,13.7570243 L25.4494414,15.6593239 L27.2131843,13.9142391 C27.3426557,13.7860486 27.5185414,13.7134879 27.7017557,13.7134879 L33.2421557,13.7134879 C33.42537,13.7134879 33.6024771,13.7860486 33.7319486,13.9142391 L35.49447,15.6593239 L40.6171414,13.7570243 C40.8308914,13.6796262 41.0678486,13.7074411 41.2547271,13.8356317 C41.4416057,13.9638223 41.5527557,14.1742483 41.5527557,14.3991864 L41.5527557,34.9701438 C41.5527557,35.1781512 41.4574843,35.3752744 41.2938129,35.5058836 L30.9055629,43.7342666 C30.7785343,43.8346422 30.6246343,43.8854347 30.4719557,43.8854347 L30.4719557,43.8854347 Z"/>
    <polygon points="34.626 23.314 36.013 23.314 36.013 21.942 34.626 21.942"/>
    <polygon points="34.626 31.542 36.013 31.542 36.013 30.171 34.626 30.171"/>
    <polygon points="31.857 23.314 33.242 23.314 33.242 21.942 31.857 21.942"/>
    <polygon points="31.857 26.057 33.242 26.057 33.242 24.685 31.857 24.685"/>
    <polygon points="31.857 31.542 33.242 31.542 33.242 30.171 31.857 30.171"/>
    <polygon points="31.857 34.285 33.242 34.285 33.242 32.914 31.857 32.914"/>
    <polygon points="34.626 26.057 36.013 26.057 36.013 24.685 34.626 24.685"/>
    <polygon points="24.932 23.314 26.317 23.314 26.317 21.942 24.932 21.942"/>
    <polygon points="24.932 31.542 26.317 31.542 26.317 30.171 24.932 30.171"/>
    <polygon points="27.702 23.314 29.087 23.314 29.087 21.942 27.702 21.942"/>
    <polygon points="27.702 26.057 29.087 26.057 29.087 24.685 27.702 24.685"/>
    <polygon points="27.702 31.542 29.087 31.542 29.087 30.171 27.702 30.171"/>
    <polygon points="27.702 34.285 29.087 34.285 29.087 32.914 27.702 32.914"/>
    <polygon points="24.932 26.057 26.317 26.057 26.317 24.685 24.932 24.685"/>
    <polygon points="31.857 28.799 33.242 28.799 33.242 27.428 31.857 27.428"/>
    <polygon points="34.626 28.799 36.013 28.799 36.013 27.428 34.626 27.428"/>
    <polygon points="27.702 28.799 29.087 28.799 29.087 27.428 27.702 27.428"/>
    <polygon points="24.932 28.799 26.317 28.799 26.317 27.428 24.932 27.428"/>
    <polygon points="24.932 19.2 26.317 19.2 26.317 16.457 24.932 16.457"/>
    <polygon points="34.626 19.2 36.013 19.2 36.013 16.457 34.626 16.457"/>
    <polygon points="15.929 15.085 17.314 15.085 17.314 13.714 15.929 13.714"/>
    <polygon points="15.929 23.314 17.314 23.314 17.314 21.942 15.929 21.942"/>
    <polygon points="15.929 31.542 17.314 31.542 17.314 30.171 15.929 30.171"/>
    <polygon points="15.929 39.771 17.314 39.771 17.314 38.399 15.929 38.399"/>
  </g>
</svg>
