<?xml version="1.0" encoding="UTF-8" standalone="no"?>
<svg width="40px" height="40px" viewBox="0 0 40 40" version="1.1" xmlns="http://www.w3.org/2000/svg" xmlns:xlink="http://www.w3.org/1999/xlink">
    <!-- Generator: Sketch 39.1 (31720) - http://www.bohemiancoding.com/sketch -->
    <title>icon</title>
    <desc>Created with Sketch.</desc>
    <defs></defs>
    <g id="About-/-Contact-/-Careers" stroke="none" stroke-width="1" fill="none" fill-rule="evenodd">
        <g id="Contact" transform="translate(-940.000000, -440.000000)" fill="#00AEF9">
            <g id="content" transform="translate(0.000000, 380.000000)">
                <g id="block" transform="translate(885.000000, 60.000000)">
                    <g id="icon" transform="translate(55.000000, 0.000000)">
                        <path d="M31.8805359,24.7403035 C28.2261474,24.7403035 25.1669631,27.3474531 24.4466699,30.8073119 L13.2656295,25.0592926 C14.458787,23.7108384 15.1907643,21.9418984 15.1907643,20.0003452 C15.1907643,18.2969983 14.6258015,16.7282896 13.6835095,15.457166 C13.7646112,15.4440474 13.8450257,15.4219529 13.9199416,15.377764 L24.4597286,9.24378161 C25.1992663,12.6780937 28.2440173,15.260387 31.8805359,15.260387 C36.0689586,15.260387 39.4759181,11.8378126 39.4759181,7.6301935 C39.4759181,5.83501631 38.8429123,4.09093263 37.6937422,2.71900299 C37.4490624,2.42625101 37.0153744,2.38965702 36.7253326,2.6354582 C36.4352909,2.88125939 36.3981766,3.31693508 36.642169,3.60761569 C37.5830864,4.73167279 38.1013127,6.15952911 38.1013127,7.6301935 C38.1013127,11.0755528 35.3108637,13.8794815 31.8805359,13.8794815 C28.4502081,13.8794815 25.6597591,11.0755528 25.6597591,7.6301935 C25.6597591,4.18483421 28.4502081,1.38090553 31.8805359,1.38090553 C32.5389719,1.38090553 33.186411,1.48309254 33.8056708,1.6853952 C34.1685666,1.80346262 34.5548307,1.60461222 34.6723595,1.24281498 C34.7892009,0.879636822 34.5919451,0.490221463 34.2304238,0.37215404 C33.4743909,0.125662403 32.6833054,0 31.8805359,0 C27.6928005,0 24.2851537,3.42257435 24.2851537,7.6301935 C24.2851537,7.66885885 24.2906521,7.70683376 24.2913394,7.74549911 L13.230577,14.1832807 C13.0766212,14.2723491 12.9755877,14.4152728 12.9261019,14.572696 C11.5535584,13.2125041 9.67103634,12.3701517 7.59538217,12.3701517 C7.21599108,12.3701517 6.90807947,12.6787841 6.90807947,13.0606045 C6.90807947,13.4424249 7.21599108,13.7510573 7.59538217,13.7510573 C11.02571,13.7510573 13.8161589,16.5549859 13.8161589,20.0003452 C13.8161589,23.4457045 11.02571,26.2489427 7.59538217,26.2489427 C4.16505438,26.2489427 1.37460541,23.4457045 1.37460541,20.0003452 C1.37460541,18.154765 2.18081148,16.4127527 3.58634551,15.2224121 C3.87569994,14.9759205 3.91281429,14.5409352 3.66813453,14.2495642 C3.42345477,13.9581931 2.98976676,13.9195277 2.69903772,14.1660194 C0.984217471,15.6208033 0,17.7467074 0,20.0003452 C0,24.2079644 3.4076468,27.6298483 7.59538217,27.6298483 C9.32463578,27.6298483 10.9150542,27.0402016 12.19275,26.0590682 L24.2899648,32.2779763 C24.2892775,32.3090467 24.2851537,32.3394266 24.2851537,32.370497 C24.2851537,36.5781161 27.6928005,40 31.8805359,40 C32.259927,40 32.5678386,39.6913676 32.5678386,39.3095472 C32.5678386,38.9284173 32.259927,38.6190945 31.8805359,38.6190945 C28.4502081,38.6190945 25.6597591,35.8158562 25.6597591,32.370497 C25.6597591,28.9244472 28.4502081,26.121209 31.8805359,26.121209 C35.3108637,26.121209 38.1013127,28.9244472 38.1013127,32.370497 C38.1013127,33.8515181 37.5762134,35.2890408 36.6215499,36.4165502 C36.3761829,36.7072308 36.4112353,37.1429065 36.6999024,37.3893981 C36.9899442,37.6365802 37.4229449,37.6006766 37.6689993,37.3106865 C38.8346646,35.9339237 39.4759181,34.1794832 39.4759181,32.370497 C39.4759181,28.1628778 36.0689586,24.7403035 31.8805359,24.7403035" id="icons/follow"></path>
                        <ellipse id="Circle" opacity="0.200000003" cx="25" cy="25" rx="15" ry="15"></ellipse>
                    </g>
                </g>
            </g>
        </g>
    </g>
</svg>